<svg width="1349" height="400" viewBox="0 0 1349 400" fill="none" xmlns="http://www.w3.org/2000/svg">
<path d="M1055.33 11.6997C1075.47 11.6997 1089.91 31.1389 1084.08 50.4185L989.58 362.962C985.749 375.633 974.073 384.3 960.836 384.3C940.695 384.3 926.265 364.862 932.094 345.583L1026.59 33.0376C1030.42 20.3675 1042.1 11.6998 1055.33 11.6997Z" fill="url(#paint0_linear_10130_404)" stroke="#FDFBFF" stroke-width="1.8"/>
<path d="M816.32 129.062C831.993 129.062 846.315 131.813 859.275 137.331L860.176 137.693C864.667 139.525 868.983 141.679 873.122 144.153C879.917 148.216 883.204 154.91 883.395 161.947C883.585 168.966 880.701 176.333 875.179 181.861L868.532 188.517C860.383 196.675 847.196 195.561 836.894 191.525L836.881 191.521C830.999 189.112 824.152 187.895 816.32 187.895C807.446 187.895 799.544 189.912 792.59 193.929L792.58 193.935C785.898 197.681 780.547 203.033 776.525 210.012C772.792 216.691 770.908 224.6 770.908 233.771C770.908 242.944 772.794 250.999 776.538 257.961C780.557 264.926 786.04 270.413 793 274.433C799.958 278.451 807.724 280.467 816.32 280.467C824.41 280.467 831.519 279.118 837.666 276.445C848.143 271.638 861.847 270.755 870.235 279.24L876.293 285.368C887.138 296.337 887.678 314.612 874.431 323.128C869.731 326.149 864.826 328.78 859.715 331.019L859.707 331.021L859.7 331.024C846.462 336.547 831.724 339.3 815.501 339.3C794.872 339.3 776.143 334.755 759.334 325.651C742.529 316.55 729.294 303.992 719.646 287.986C709.994 271.972 705.173 254.029 705.173 234.181C705.173 214.062 709.993 196.115 719.65 180.369L719.652 180.366C729.572 164.365 742.941 151.81 759.743 142.71C776.554 133.605 795.42 129.062 816.32 129.062ZM331.293 129.472C344.797 129.472 356.953 132.093 367.745 137.354C375.643 141.11 382.491 145.931 388.282 151.814C393.327 141.039 404.266 133.575 416.949 133.575C434.422 133.575 448.588 147.74 448.588 165.213V303.148C448.588 320.622 434.422 334.786 416.949 334.786C404.375 334.786 393.515 327.451 388.413 316.826C382.773 322.54 376.019 327.267 368.155 331.007C357.093 336.267 344.8 338.89 331.293 338.89C312.831 338.89 296.27 334.335 281.636 325.213L281.629 325.209C267.285 316.096 255.843 303.67 247.304 287.951L247.298 287.94V287.939C239.025 272.202 234.899 254.275 234.899 234.181C234.899 214.086 239.026 196.158 247.299 180.421L247.304 180.41C255.843 164.692 267.285 152.266 281.629 143.152L281.636 143.148C296.27 134.026 312.831 129.472 331.293 129.472ZM651.881 35.0996C669.693 35.0996 684.134 49.5399 684.134 67.3525V303.148C684.134 320.622 669.969 334.786 652.496 334.786C640.386 334.786 629.866 327.982 624.549 317.988C619.189 322.855 613.067 327.055 606.185 330.584L606.169 330.592C594.832 336.128 582.263 338.89 568.479 338.89C549.476 338.89 532.507 334.338 517.599 325.217L517.592 325.213C502.974 316.1 491.392 303.674 482.851 287.951L482.845 287.94C474.571 272.203 470.446 254.275 470.446 234.181C470.446 214.086 474.571 196.158 482.845 180.421L482.851 180.41L483.66 178.946C492.119 163.914 503.43 151.976 517.592 143.148L517.599 143.145C532.507 134.023 549.476 129.472 568.479 129.472C582.256 129.472 594.686 132.093 605.751 137.354H605.75C610.783 139.69 615.409 142.438 619.628 145.596V67.3525C619.628 49.54 634.068 35.0998 651.881 35.0996ZM344.407 187.895C335.811 187.895 328.187 189.91 321.51 193.921L321.501 193.927C315.09 197.671 309.869 203.024 305.843 210.012C302.107 216.969 300.226 225.017 300.226 234.181C300.226 243.077 302.109 250.997 305.855 257.963C309.605 264.934 314.82 270.422 321.51 274.44C328.192 278.454 335.681 280.467 343.998 280.467C357.169 280.467 367.713 276.171 375.719 267.621C383.74 258.782 387.771 247.658 387.771 234.181C387.77 225.006 385.884 216.951 382.14 209.988L382.134 209.977L382.128 209.964C378.655 203.011 373.59 197.675 366.919 193.935L366.899 193.924L366.881 193.912C360.485 189.91 353.004 187.895 344.407 187.895ZM579.954 187.895C571.358 187.895 563.734 189.91 557.057 193.921C550.638 197.94 545.416 203.435 541.39 210.422C537.651 217.382 535.771 225.295 535.771 234.181C535.771 243.077 537.656 250.997 541.402 257.963C545.152 264.934 550.367 270.422 557.057 274.44C563.738 278.454 571.227 280.467 579.544 280.467C588.431 280.467 596.055 278.58 602.451 274.845C608.859 270.83 613.937 265.345 617.687 258.373C621.431 251.411 623.316 243.355 623.316 234.181C623.316 225.005 621.43 217.093 617.693 210.412L617.684 210.394L617.674 210.374C614.199 203.416 609.126 197.936 602.441 193.921L602.435 193.917L602.428 193.912C596.031 189.91 588.551 187.895 579.954 187.895Z" fill="url(#paint1_linear_10130_404)" stroke="#FDFBFF" stroke-width="1.8"/>
<path d="M1152 36C1152 36 1178.29 106.976 1209.9 138.836C1242.24 171.425 1314 198 1314 198C1314 198 1239.92 222.025 1207.7 254.332C1175.72 286.396 1152 360 1152 360M201.521 36C201.521 36 174.71 107.741 142.672 139.78C110.633 171.819 39.5208 198 39.5208 198C39.5208 198 109.81 224.779 141.728 256.534C174.131 288.773 201.521 360 201.521 360M194.4 36C194.4 36 167.59 107.741 135.551 139.78C103.512 171.819 32.3999 198 32.3999 198C32.3999 198 102.689 224.779 134.607 256.534C167.01 288.773 194.4 360 194.4 360" stroke="url(#paint2_linear_10130_404)" stroke-width="61.2" stroke-linecap="round" stroke-linejoin="round"/>
<defs>
<linearGradient id="paint0_linear_10130_404" x1="640.97" y1="12.6001" x2="640.97" y2="383.4" gradientUnits="userSpaceOnUse">
<stop stop-color="white"/>
<stop offset="0.5" stop-color="#FDFBFF"/>
</linearGradient>
<linearGradient id="paint1_linear_10130_404" x1="642.064" y1="24.101" x2="642.064" y2="356.454" gradientUnits="userSpaceOnUse">
<stop stop-color="white"/>
<stop offset="0.504808" stop-color="#FDFBFF"/>
</linearGradient>
<linearGradient id="paint2_linear_10130_404" x1="194.985" y1="35.3258" x2="194.985" y2="359.326" gradientUnits="userSpaceOnUse">
<stop stop-color="white"/>
<stop offset="0.495192" stop-color="#FDFBFF"/>
</linearGradient>
</defs>
</svg>
