<svg width="749" height="222" viewBox="0 0 749 222" fill="none" xmlns="http://www.w3.org/2000/svg">
<path d="M586.297 6.5C597.486 6.50029 605.503 17.2992 602.265 28.0098L549.767 201.646C547.638 208.684 541.152 213.5 533.798 213.5C522.608 213.5 514.592 202.701 517.83 191.99L570.328 18.3545C572.456 11.3155 578.943 6.5 586.297 6.5Z" fill="url(#paint0_linear_10129_191)" stroke="#5736FF"/>
<path d="M453.512 71.7012C462.218 71.7012 470.175 73.2297 477.375 76.2949C480.05 77.3551 482.615 78.6185 485.067 80.085C488.842 82.3419 490.668 86.061 490.774 89.9707C490.88 93.8702 489.279 97.9629 486.211 101.034L482.518 104.731C477.99 109.264 470.665 108.645 464.941 106.403L464.934 106.4C461.666 105.062 457.862 104.386 453.512 104.386C448.582 104.386 444.191 105.507 440.328 107.738L440.322 107.741C436.61 109.823 433.638 112.796 431.403 116.673C429.329 120.383 428.282 124.777 428.282 129.872C428.282 134.963 429.328 139.435 431.403 143.3L431.832 144.017C434.021 147.553 436.927 150.367 440.556 152.463C444.421 154.695 448.736 155.814 453.512 155.814C458.01 155.814 461.962 155.064 465.379 153.577C471.198 150.91 478.806 150.422 483.464 155.134L486.83 158.538C492.855 164.632 493.154 174.784 485.795 179.516C483.184 181.194 480.459 182.656 477.619 183.899L477.611 183.902C470.257 186.97 462.069 188.5 453.056 188.5C441.595 188.5 431.191 185.975 421.853 180.917C412.517 175.861 405.164 168.885 399.804 159.992C394.441 151.095 391.763 141.127 391.763 130.101C391.763 118.923 394.44 108.953 399.806 100.205L399.807 100.203C405.318 91.3138 412.745 84.3389 422.08 79.2832C431.419 74.2251 441.901 71.7012 453.512 71.7012ZM184.052 71.9287C191.556 71.9287 198.311 73.3858 204.308 76.3105H204.307C208.693 78.3968 212.495 81.0737 215.712 84.3408C218.515 78.3548 224.592 74.208 231.639 74.208C241.346 74.208 249.216 82.0778 249.216 91.7852V168.416C249.216 178.123 241.346 185.992 231.639 185.992C224.653 185.992 218.618 181.918 215.784 176.015C212.651 179.189 208.899 181.815 204.53 183.893C198.385 186.815 191.556 188.272 184.052 188.272C173.795 188.272 164.595 185.742 156.465 180.674L156.461 180.672C148.492 175.609 142.135 168.705 137.392 159.973L137.388 159.967C132.791 151.224 130.5 141.264 130.5 130.101C130.5 118.937 132.792 108.977 137.388 100.234L137.392 100.229C142.135 91.4959 148.492 84.5923 156.461 79.5293L156.465 79.5264C164.595 74.4586 173.795 71.9287 184.052 71.9287ZM362.156 19.5C372.052 19.5 380.074 27.5221 380.074 37.418V168.416C380.074 178.123 372.205 185.992 362.498 185.992C355.77 185.992 349.926 182.212 346.972 176.659C343.994 179.363 340.594 181.697 336.77 183.658L336.761 183.662C330.463 186.738 323.48 188.272 315.821 188.272C305.264 188.272 295.837 185.743 287.555 180.676L287.551 180.674C279.43 175.611 272.995 168.707 268.25 159.973L268.247 159.967C263.651 151.224 261.359 141.264 261.359 130.101C261.359 118.937 263.651 108.977 268.247 100.234L268.25 100.229C272.995 91.4936 279.429 84.5889 287.551 79.5264L287.555 79.5244C295.837 74.4572 305.264 71.9287 315.821 71.9287C323.474 71.9287 330.378 73.3847 336.524 76.3066L337.11 76.583C339.682 77.8196 342.058 79.2546 344.238 80.8867V37.418C344.238 27.5221 352.26 19.5 362.156 19.5ZM191.338 104.386C186.562 104.386 182.327 105.506 178.617 107.734L178.611 107.737C175.05 109.817 172.15 112.791 169.913 116.673C167.837 120.538 166.792 125.009 166.792 130.101C166.792 135.043 167.838 139.442 169.92 143.312C172.003 147.186 174.901 150.234 178.617 152.467C182.329 154.697 186.49 155.814 191.11 155.814C198.427 155.814 204.285 153.428 208.732 148.679C213.189 143.768 215.428 137.588 215.428 130.101C215.428 125.004 214.38 120.528 212.3 116.66L212.297 116.653L212.293 116.646C210.364 112.784 207.55 109.819 203.844 107.741L203.833 107.735L203.149 107.325C199.747 105.37 195.815 104.386 191.338 104.386ZM322.197 104.386C317.421 104.386 313.185 105.506 309.476 107.734C305.914 109.965 303.015 113.012 300.779 116.888L300.4 117.62C298.57 121.31 297.651 125.467 297.651 130.101C297.651 135.043 298.698 139.442 300.779 143.312C302.862 147.185 305.759 150.234 309.476 152.467C313.188 154.697 317.348 155.814 321.969 155.814C326.904 155.814 331.138 154.767 334.69 152.693C338.252 150.463 341.075 147.416 343.159 143.541C345.24 139.673 346.287 135.197 346.287 130.101C346.287 125.003 345.239 120.607 343.163 116.896L343.157 116.885L343.152 116.875C341.222 113.009 338.404 109.965 334.69 107.734L334.683 107.729C331.129 105.506 326.973 104.386 322.197 104.386Z" fill="url(#paint1_linear_10129_191)" stroke="#5736FF"/>
<path d="M640 20C640 20 654.607 59.4313 672.169 77.1312C690.134 95.2364 730 110 730 110C730 110 688.845 123.347 670.946 141.295C653.18 159.109 640 200 640 200M111.956 20C111.956 20 97.0614 59.8564 79.2621 77.6557C61.4627 95.455 21.9561 110 21.9561 110C21.9561 110 61.0057 124.877 78.7376 142.519C96.7394 160.43 111.956 200 111.956 200M108 20C108 20 93.1053 59.8564 75.306 77.6557C57.5067 95.455 18 110 18 110C18 110 57.0496 124.877 74.7815 142.519C92.7834 160.43 108 200 108 200" stroke="url(#paint2_linear_10129_191)" stroke-width="34" stroke-linecap="round" stroke-linejoin="round"/>
<defs>
<linearGradient id="paint0_linear_10129_191" x1="356.095" y1="7" x2="356.095" y2="213" gradientUnits="userSpaceOnUse">
<stop stop-color="#9400FD"/>
<stop offset="1" stop-color="#5736FF"/>
</linearGradient>
<linearGradient id="paint1_linear_10129_191" x1="356.702" y1="13.3894" x2="356.702" y2="198.03" gradientUnits="userSpaceOnUse">
<stop stop-color="#9400FD"/>
<stop offset="1" stop-color="#5736FF"/>
</linearGradient>
<linearGradient id="paint2_linear_10129_191" x1="108.325" y1="19.6255" x2="108.325" y2="199.625" gradientUnits="userSpaceOnUse">
<stop stop-color="#9400FD"/>
<stop offset="1" stop-color="#5736FF"/>
</linearGradient>
</defs>
</svg>
