<?xml version="1.0" encoding="UTF-8" standalone="no"?>
<svg
   xmlnsDc="http://purl.org/dc/elements/1.1/"
   xmlnsCc="http://creativecommons.org/ns#"
   xmlnsRdf="http://www.w3.org/1999/02/22-rdf-syntax-ns#"
   xmlnsSvg="http://www.w3.org/2000/svg"
   xmlns="http://www.w3.org/2000/svg"
   viewBox="0 0 6666.6665 4000"
   height="4000"
   width="6666.6665"
   xmlSpace="preserve"
   id="svg2"
   version="1.1"><metadata
     id="metadata8"><rdfRDF><ccWork
         rdfAbout=""><dcFormat>image/svg+xml</dcFormat><dcType
           rdfResource="http://purl.org/dc/dcmitype/StillImage" /></ccWork></rdfRDF></metadata><defs
     id="defs6"><radialGradient
       id="radialGradient22"
       spreadMethod="pad"
       gradientTransform="matrix(29258.5,0,0,-29258.5,25000,15000)"
       gradientUnits="userSpaceOnUse"
       r="1"
       cy="0"
       cx="0"
       fy="0"
       fx="0"><stop
         id="stop16"
         offset="0"
         style="stop-opacity:1;stop-color:#c4f2e1" /><stop
         id="stop18"
         offset="0.16328494"
         style="stop-opacity:1;stop-color:#c4f2e1" /><stop
         id="stop20"
         offset="1"
         style="stop-opacity:1;stop-color:#8be3c3" /></radialGradient><radialGradient
       id="radialGradient34"
       spreadMethod="pad"
       gradientTransform="matrix(29258.5,0,0,-29258.5,25000,15000)"
       gradientUnits="userSpaceOnUse"
       r="1"
       cy="0"
       cx="0"
       fy="0"
       fx="0"><stop
         id="stop28"
         offset="0"
         style="stop-opacity:1;stop-color:#c4f2e1" /><stop
         id="stop30"
         offset="0.16328494"
         style="stop-opacity:1;stop-color:#c4f2e1" /><stop
         id="stop32"
         offset="1"
         style="stop-opacity:1;stop-color:#8be3c3" /></radialGradient><clipPath
       id="clipPath44"
       clipPathUnits="userSpaceOnUse"><path
         id="path42"
         d="m 23788,30000 c -1429,-1478 -2776,-3059 -4699,-3669 -1549,-491 -3219,-256 -4844,-215 -1624,41 -3404,-186 -4537,-1351 C 8407,23429 8225,21120 6602,20201 5737,19712 4657,19754 3770,19309 2667,18755 2064,17571 1348,16565 951,16006 497.996,15488 0,15017 v 14983 z" /></clipPath><linearGradient
       id="linearGradient52"
       spreadMethod="pad"
       gradientTransform="matrix(-8047.06,12494.1,12494.1,8047.06,14955.6,17755)"
       gradientUnits="userSpaceOnUse"
       y2="0"
       x2="1"
       y1="0"
       x1="0"><stop
         id="stop48"
         offset="0"
         style="stop-opacity:1;stop-color:#f24998" /><stop
         id="stop50"
         offset="1"
         style="stop-opacity:1;stop-color:#c4f2e1" /></linearGradient><clipPath
       id="clipPath62"
       clipPathUnits="userSpaceOnUse"><path
         id="path60"
         d="M 50000,16422 V 0 H 10158 c 789,574 1699,973 2672,1120 1232,186 2503,17 3723,272 1953,408 3554,1851 5490,2334 2645,660 5798,-476 7959,1185 1722,1323 2068,3963 3888,5147 2066,1345 4959,162 7209,1168 1904,852 2840,3024 4513,4271 1238,924 2876,1222 4388,925 z" /></clipPath><linearGradient
       id="linearGradient76"
       spreadMethod="pad"
       gradientTransform="matrix(-6141.18,12917.6,12917.6,6141.18,35205.6,-2572.6)"
       gradientUnits="userSpaceOnUse"
       y2="0"
       x2="1"
       y1="0"
       x1="0"><stop
         id="stop66"
         offset="0"
         style="stop-opacity:1;stop-color:#f24998" /><stop
         id="stop68"
         offset="0.188441"
         style="stop-opacity:1;stop-color:#f24998" /><stop
         id="stop70"
         offset="0.33824414"
         style="stop-opacity:1;stop-color:#f24998" /><stop
         id="stop72"
         offset="0.861245"
         style="stop-opacity:1;stop-color:#c4f2e1" /><stop
         id="stop74"
         offset="1"
         style="stop-opacity:1;stop-color:#c4f2e1" /></linearGradient><clipPath
       id="clipPath86"
       clipPathUnits="userSpaceOnUse"><path
         id="path84"
         d="m 20522,30000 c -156,-665 -314,-1330 -522,-1980 -519,-1626 -1458,-3250 -3017,-3946 -1782,-795 -3836,-183 -5723,313 -1887,496 -4102,801 -5613,-434 C 4669,23153 4222,21864 4057,20610 3891,19357 3961,18081 3785,16829 3431,14300 2033,11937 0,10395 v 19605 z" /></clipPath><linearGradient
       id="linearGradient94"
       spreadMethod="pad"
       gradientTransform="matrix(11929.4,-12070.6,-12070.6,-11929.4,482.089,30092.1)"
       gradientUnits="userSpaceOnUse"
       y2="0"
       x2="1"
       y1="0"
       x1="0"><stop
         id="stop90"
         offset="0"
         style="stop-opacity:1;stop-color:#f24998" /><stop
         id="stop92"
         offset="1"
         style="stop-opacity:1;stop-color:#c4f2e1" /></linearGradient><clipPath
       id="clipPath104"
       clipPathUnits="userSpaceOnUse"><path
         id="path102"
         d="M 50000,21805 V 0 H 15969 c 532,981 1226,1874 2056,2620 1849,1665 4347,2589 6834,2529 1571,-37 3109,-449 4675,-575 1567,-125 3263,84 4455,1107 1871,1605 2017,4759 4141,6010 2412,1420 5869,-530 8162,1073 1006,703 1503,1934 1749,3136 246,1202 295,2446 663,3615 267,848 717,1623 1296,2290 z" /></clipPath><linearGradient
       id="linearGradient114"
       spreadMethod="pad"
       gradientTransform="matrix(12776.5,-12776.5,-12776.5,-12776.5,33302.3,10584.7)"
       gradientUnits="userSpaceOnUse"
       y2="0"
       x2="1"
       y1="0"
       x1="0"><stop
         id="stop108"
         offset="0"
         style="stop-opacity:1;stop-color:#f24998" /><stop
         id="stop110"
         offset="0.8345086"
         style="stop-opacity:1;stop-color:#c4f2e1" /><stop
         id="stop112"
         offset="1"
         style="stop-opacity:1;stop-color:#c4f2e1" /></linearGradient><clipPath
       id="clipPath132"
       clipPathUnits="userSpaceOnUse"><path
         id="path130"
         d="m 16288.2,4529.4 c 0,-399.6 -323.9,-723.5 -723.5,-723.5 -399.6,0 -723.5,323.9 -723.5,723.5 0,399.6 323.9,723.5 723.5,723.5 399.6,0 723.5,-323.9 723.5,-723.5 z" /></clipPath><linearGradient
       id="linearGradient138"
       spreadMethod="pad"
       gradientTransform="matrix(35.2941,2258.82,2258.82,-35.2941,15543,3140.3)"
       gradientUnits="userSpaceOnUse"
       y2="0"
       x2="1"
       y1="0"
       x1="0"><stop
         id="stop134"
         offset="0"
         style="stop-opacity:1;stop-color:#f24998" /><stop
         id="stop136"
         offset="1"
         style="stop-opacity:1;stop-color:#c4f2e1" /></linearGradient><clipPath
       id="clipPath148"
       clipPathUnits="userSpaceOnUse"><path
         id="path146"
         d="m 41735.3,15170.6 c 0,-253.4 -205.4,-458.8 -458.8,-458.8 -253.4,0 -458.9,205.4 -458.9,458.8 0,253.4 205.5,458.8 458.9,458.8 253.4,0 458.8,-205.4 458.8,-458.8 z" /></clipPath><linearGradient
       id="linearGradient156"
       spreadMethod="pad"
       gradientTransform="matrix(423.529,-1870.59,-1870.59,-423.529,41068.5,16089.1)"
       gradientUnits="userSpaceOnUse"
       y2="0"
       x2="1"
       y1="0"
       x1="0"><stop
         id="stop152"
         offset="0"
         style="stop-opacity:1;stop-color:#f24998" /><stop
         id="stop154"
         offset="1"
         style="stop-opacity:1;stop-color:#c4f2e1" /></linearGradient><clipPath
       id="clipPath166"
       clipPathUnits="userSpaceOnUse"><path
         id="path164"
         d="m 21720.4,25052.9 c 0,-409.3 -331.9,-741.1 -741.2,-741.1 -409.4,0 -741.2,331.8 -741.2,741.1 0,409.4 331.8,741.2 741.2,741.2 409.3,0 741.2,-331.8 741.2,-741.2 z" /></clipPath><linearGradient
       id="linearGradient174"
       spreadMethod="pad"
       gradientTransform="matrix(-423.529,-2294.12,-2294.12,423.529,21184.4,26164.6)"
       gradientUnits="userSpaceOnUse"
       y2="0"
       x2="1"
       y1="0"
       x1="0"><stop
         id="stop170"
         offset="0"
         style="stop-opacity:1;stop-color:#f24998" /><stop
         id="stop172"
         offset="1"
         style="stop-opacity:1;stop-color:#c4f2e1" /></linearGradient><clipPath
       id="clipPath184"
       clipPathUnits="userSpaceOnUse"><path
         id="path182"
         d="m 5311.76,11782.4 c 0,-565.3 -458.24,-1023.6 -1023.52,-1023.6 -565.28,0 -1023.53,458.3 -1023.53,1023.6 0,565.2 458.25,1023.5 1023.53,1023.5 565.28,0 1023.52,-458.3 1023.52,-1023.5 z" /></clipPath><linearGradient
       id="linearGradient190"
       spreadMethod="pad"
       gradientTransform="matrix(-1235.29,2117.65,2117.65,1235.29,4998.69,10564.4)"
       gradientUnits="userSpaceOnUse"
       y2="0"
       x2="1"
       y1="0"
       x1="0"><stop
         id="stop186"
         offset="0"
         style="stop-opacity:1;stop-color:#f24998" /><stop
         id="stop188"
         offset="1"
         style="stop-opacity:1;stop-color:#c4f2e1" /></linearGradient><clipPath
       id="clipPath200"
       clipPathUnits="userSpaceOnUse"><path
         id="path198"
         d="M 50000,30000 V 0 H 0 v 30000 z" /></clipPath><clipPath
       id="clipPath206"
       clipPathUnits="userSpaceOnUse"><path
         id="path204"
         d="m 39335.3,31017.7 c 0,-1442.5 -1169.3,-2611.8 -2611.8,-2611.8 -1442.4,0 -2611.7,1169.3 -2611.7,2611.8 0,1442.4 1169.3,2611.7 2611.7,2611.7 1442.5,0 2611.8,-1169.3 2611.8,-2611.7 z" /></clipPath><linearGradient
       id="linearGradient214"
       spreadMethod="pad"
       gradientTransform="matrix(776.471,-5294.12,-5294.12,-776.471,36403.9,33196.7)"
       gradientUnits="userSpaceOnUse"
       y2="0"
       x2="1"
       y1="0"
       x1="0"><stop
         id="stop210"
         offset="0"
         style="stop-opacity:1;stop-color:#f24998" /><stop
         id="stop212"
         offset="1"
         style="stop-opacity:1;stop-color:#c4f2e1" /></linearGradient><clipPath
       id="clipPath224"
       clipPathUnits="userSpaceOnUse"><path
         id="path222"
         d="M 50000,30000 V 0 H 0 v 30000 z" /></clipPath><clipPath
       id="clipPath230"
       clipPathUnits="userSpaceOnUse"><path
         id="path228"
         d="M 2770.59,-147.098 C 2770.59,-1648 1553.86,-2864.7 52.9414,-2864.7 -1447.97,-2864.7 -2664.71,-1648 -2664.71,-147.098 -2664.71,1353.9 -1447.97,2570.6 52.9414,2570.6 1553.86,2570.6 2770.59,1353.9 2770.59,-147.098 Z" /></clipPath><linearGradient
       id="linearGradient236"
       spreadMethod="pad"
       gradientTransform="matrix(-4164.71,-5505.88,-5505.88,4164.71,2866.13,3572.1)"
       gradientUnits="userSpaceOnUse"
       y2="0"
       x2="1"
       y1="0"
       x1="0"><stop
         id="stop232"
         offset="0"
         style="stop-opacity:1;stop-color:#f24998" /><stop
         id="stop234"
         offset="1"
         style="stop-opacity:1;stop-color:#c4f2e1" /></linearGradient><clipPath
       id="clipPath246"
       clipPathUnits="userSpaceOnUse"><path
         id="path244"
         d="M 50000,30000 V 0 H 0 v 30000 z" /></clipPath><clipPath
       id="clipPath252"
       clipPathUnits="userSpaceOnUse"><path
         id="path250"
         d="m 50841.2,23111.8 c 0,-662.8 -537.3,-1200 -1200,-1200 -662.8,0 -1200,537.2 -1200,1200 0,662.7 537.2,1200 1200,1200 662.7,0 1200,-537.3 1200,-1200 z" /></clipPath><linearGradient
       id="linearGradient260"
       spreadMethod="pad"
       gradientTransform="matrix(-2894.12,1694.12,1694.12,2894.12,51676.2,21920.6)"
       gradientUnits="userSpaceOnUse"
       y2="0"
       x2="1"
       y1="0"
       x1="0"><stop
         id="stop256"
         offset="0"
         style="stop-opacity:1;stop-color:#f24998" /><stop
         id="stop258"
         offset="1"
         style="stop-opacity:1;stop-color:#c4f2e1" /></linearGradient></defs><g
     transform="matrix(1.3333333,0,0,-1.3333333,0,4000)"
     id="g10"><g
       transform="scale(0.1)"
       id="g12"><g
         transform="scale(3.06748)"
         id="g14"><path
           id="path24"
           style="fill:url(#radialGradient22);fill-opacity:1;fill-rule:nonzero;stroke:none"
           d="M 16300,9780 V 0 H 0 v 9780 h 16300" /></g><g
         transform="scale(3.06748)"
         id="g26"><path
           id="path36"
           style="fill:url(#radialGradient34);fill-opacity:1;fill-rule:nonzero;stroke:none"
           d="M 16300,9780 V 0 H 0 v 9780 h 16300" /></g><g
         id="g38"><g
           clip-path="url(#clipPath44)"
           id="g40"><g
             transform="scale(1.84049)"
             id="g46"><path
               id="path54"
               style="fill:url(#linearGradient52);fill-opacity:1;fill-rule:nonzero;stroke:none"
               d="m 12924.8,16300 c -776.4,-803 -1508.3,-1662.1 -2553.1,-1993.5 -841.63,-266.8 -1749,-139.1 -2631.92,-116.8 -882.37,22.3 -1849.5,-101.1 -2465.1,-734.1 C 4567.8,12729.8 4468.92,11475.2 3587.09,10975.9 3117.1,10710.2 2530.3,10733 2048.37,10491.2 1449.07,10190.2 1121.44,9546.91 732.413,9000.32 516.71,8696.59 270.578,8415.15 0,8159.24 V 16300 h 12924.8" /></g></g></g><g
         id="g56"><g
           clip-path="url(#clipPath62)"
           id="g58"><g
             transform="scale(3.06748)"
             id="g64"><path
               id="path78"
               style="fill:url(#linearGradient76);fill-opacity:1;fill-rule:nonzero;stroke:none"
               d="M 16300,5353.57 V 0 H 3311.51 c 257.21,187.124 553.87,317.198 871.07,365.12 401.63,60.636 815.98,5.542 1213.7,88.672 636.68,133.008 1158.6,603.428 1789.74,760.888 862.27,215.16 1890.15,-155.18 2594.63,386.31 561.35,431.29 674.15,1291.93 1267.45,1677.92 673.6,438.47 1616.7,52.81 2350.2,380.77 620.7,277.75 925.8,985.82 1471.2,1392.34 403.6,301.23 937.6,398.37 1430.5,301.55" /></g></g></g><g
         id="g80"><g
           clip-path="url(#clipPath86)"
           id="g82"><g
             transform="scale(1.84049)"
             id="g88"><path
               id="path96"
               style="fill:url(#linearGradient94);fill-opacity:1;fill-rule:nonzero;stroke:none"
               d="m 11150.3,16300 c -84.8,-361.3 -170.6,-722.6 -283.6,-1075.8 -282,-883.5 -792.2,-1765.8 -1639.27,-2144 -968.22,-431.9 -2084.23,-99.4 -3109.5,170.1 -1025.27,269.5 -2228.75,435.2 -3049.73,-235.8 -531.38,-434.7 -774.25,-1135.1 -863.9,-1816.4 -90.19,-680.8 -52.16,-1374.09 -147.78,-2054.34 C 1864.18,7769.67 1104.6,6485.77 0,5647.95 V 16300 h 11150.3" /></g></g></g><g
         id="g98"><g
           clip-path="url(#clipPath104)"
           id="g100"><g
             transform="scale(3.06748)"
             id="g106"><path
               id="path116"
               style="fill:url(#linearGradient114);fill-opacity:1;fill-rule:nonzero;stroke:none"
               d="M 16300,7108.43 V 0 H 5205.89 c 173.44,319.806 399.68,610.924 670.26,854.12 602.77,542.79 1417.12,844.01 2227.88,824.45 512.15,-12.06 1013.54,-146.37 1524.05,-187.45 510.82,-40.75 1063.72,27.39 1452.32,360.89 610,523.23 657.6,1551.43 1350,1959.26 786.3,462.92 1913.3,-172.78 2660.8,349.79 327.9,229.18 490,630.49 570.2,1022.34 80.2,391.85 96.1,797.4 216.1,1178.49 87,276.45 233.7,529.1 422.5,746.54" /></g></g></g><g
         transform="scale(1.84049)"
         id="g118"><path
           id="path120"
           style="fill:#ffffff;fill-opacity:1;fill-rule:nonzero;stroke:none"
           d="m 15533.9,16300 c -1205.1,-1006.8 -2753.1,-1609.9 -4326.6,-1609.9 -59.7,0 -119.5,0.5 -179.3,2.2 -193.4,6 -389,20.1 -578.6,33.7 -335.3,24.4 -681.35,49.4 -1022.02,28.2 -435.21,-27.7 -1039.4,-152.1 -1444.73,-586.8 -230.91,-248.3 -368.92,-569.4 -502.58,-879.6 -137.46,-320.6 -279.82,-651.5 -524.32,-903.1 -612.33,-630.8 -1606.63,-575.9 -2589.52,-422.7 -979.63,152.7 -1970.13,208.1 -2579.21,-414 -467.81,-478.7 -534.09,-1218.1 -542.79,-1733.23 -2.17,-117.9 -2.17,-238.52 -2.17,-355.34 1.09,-502.04 2.17,-1020.92 -172.78,-1495.25 C 886.177,7467.03 503.672,7039.97 0,6737.33 v 16.3 c 497.691,301.01 874.767,723.72 1056.24,1215.44 174.41,471.61 173.32,989.41 172.24,1489.82 0,117.36 0,237.98 2.17,356.43 8.69,516.68 74.98,1259.98 546.59,1741.88 613.43,627 1607.73,571.6 2591.16,418.4 979.63,-152.7 1969.58,-208.1 2577.57,418.4 242.87,249.9 384.68,579.7 521.6,898.6 134.21,311.9 272.76,634.1 505.3,884.1 408.59,437.9 1016.04,563.4 1453.96,591.1 341.22,21.2 687.87,-3.8 1023.67,-28.3 189.1,-13.5 385.2,-27.7 577.5,-33.6 59.8,-1.7 119.6,-2.2 179.3,-2.2 1564.8,0 3104.6,597.7 4305.4,1596.3 h 21.2" /></g><g
         transform="scale(3.06748)"
         id="g122"><path
           id="path124"
           style="fill:#ffffff;fill-opacity:1;fill-rule:nonzero;stroke:none"
           d="m 16300,6902.07 v -9.45 c -549,-275.47 -1002.4,-753.06 -1241.1,-1317.69 -60,-141.49 -109.2,-292.75 -156.8,-438.8 -111.8,-343.6 -227.5,-698.94 -487.7,-951.27 -391.8,-380.77 -965.9,-404.24 -1520.8,-427.38 -495.2,-20.22 -1007.3,-41.41 -1407,-308.4 -452.2,-302.2 -635.4,-812.39 -829,-1352.25 -157.1,-437.82 -319.8,-890.3 -639.3,-1216.956 C 9698.17,551.918 9224.82,350.776 8572.82,264.06 8359.62,235.698 8141.2,220.05 7929.95,204.728 7617.97,182.234 7295.55,158.762 6984.55,94.866 6862.63,69.764 6742.33,38.142 6623.67,0 h -26.08 c 126.49,41.728 254.93,75.958 385.33,102.69 311.66,64.222 634.4,87.694 946.38,110.188 211.25,15.322 429.34,30.97 642.22,59.332 651.02,86.39 1122.09,286.88 1441.28,613.206 318.1,325.344 480.2,777.184 637,1214.024 185.8,517.69 378.1,1052.98 832.2,1356.49 401.7,268.29 914.8,289.48 1411.3,309.7 579,23.79 1125.7,46.61 1515.6,425.1 258.5,251.02 373.9,605.06 485.4,947.68 47.9,146.38 97.1,297.97 157.1,439.78 135.6,321.11 344,621.35 602.8,868.79 191.7,183.53 411.7,338.06 645.8,455.09" /></g><g
         id="g126"><g
           clip-path="url(#clipPath132)"
           id="g128"><path
             id="path140"
             style="fill:url(#linearGradient138);fill-opacity:1;fill-rule:nonzero;stroke:none"
             d="m 16288.2,4529.4 c 0,-399.6 -323.9,-723.5 -723.5,-723.5 -399.6,0 -723.5,323.9 -723.5,723.5 0,399.6 323.9,723.5 723.5,723.5 399.6,0 723.5,-323.9 723.5,-723.5" /></g></g><g
         id="g142"><g
           clip-path="url(#clipPath148)"
           id="g144"><g
             transform="scale(2.56045)"
             id="g150"><path
               id="path158"
               style="fill:url(#linearGradient156);fill-opacity:1;fill-rule:nonzero;stroke:none"
               d="m 16300,5924.98 c 0,-98.97 -80.2,-179.19 -179.2,-179.19 -99,0 -179.2,80.22 -179.2,179.19 0,98.97 80.2,179.19 179.2,179.19 99,0 179.2,-80.22 179.2,-179.19" /></g></g></g><g
         id="g160"><g
           clip-path="url(#clipPath166)"
           id="g162"><g
             transform="scale(1.58246)"
             id="g168"><path
               id="path176"
               style="fill:url(#linearGradient174);fill-opacity:1;fill-rule:nonzero;stroke:none"
               d="m 13725.7,15831.6 c 0,-258.6 -209.7,-468.3 -468.4,-468.3 -258.7,0 -468.4,209.7 -468.4,468.3 0,258.7 209.7,468.4 468.4,468.4 258.7,0 468.4,-209.7 468.4,-468.4" /></g></g></g><g
         id="g178"><g
           clip-path="url(#clipPath184)"
           id="g180"><path
             id="path192"
             style="fill:url(#linearGradient190);fill-opacity:1;fill-rule:nonzero;stroke:none"
             d="m 5311.76,11782.4 c 0,-565.3 -458.24,-1023.6 -1023.52,-1023.6 -565.28,0 -1023.53,458.3 -1023.53,1023.6 0,565.2 458.25,1023.5 1023.53,1023.5 565.28,0 1023.52,-458.3 1023.52,-1023.5" /></g></g><g
         id="g194"><g
           clip-path="url(#clipPath200)"
           id="g196"><g
             clip-path="url(#clipPath206)"
             id="g202"><g
               transform="scale(2.40067)"
               id="g208"><path
                 id="path216"
                 style="fill:url(#linearGradient214);fill-opacity:1;fill-rule:nonzero;stroke:none"
                 d="m 15287,11832.1 v 0.4 h -20.9 v 0.4 h -11.2 v 0.4 h -10.9 v 0.5 h -7.9 v 0.4 h -6.6 v 0.4 h -6.3 v 0.4 h -6.6 v 0.4 h -5.9 v 0.4 h -4.6 v 0.5 h -4.5 v 0.4 h -4.6 v 0.4 h -5 v 0.4 h -4.6 v 0.4 h -4.2 v 0.4 h -3.3 v 0.5 h -3.8 v 0.4 h -3.7 v 0.4 h -3.7 v 0.4 h -3.4 v 0.4 h -3.7 v 0.4 h -3.8 v 0.5 h -2.9 v 0.4 h -2.9 v 0.4 h -2.9 v 0.4 h -2.9 v 0.4 h -3 v 0.4 h -2.9 v 0.5 h -3.3 v 0.4 h -2.9 v 0.4 h -2.9 v 0.4 h -2.5 v 0.4 h -2.5 v 0.4 h -2.5 v 0.5 h -2.5 v 0.4 h -2.5 v 0.4 h -2.5 v 0.4 h -2.5 v 0.4 h -2.5 v 0.4 h -2.5 v 0.5 h -2.5 v 0.4 h -2.5 v 0.4 h -2.1 v 0.4 h -2.1 v 0.4 h -2.5 v 0.4 h -2.1 v 0.5 h -2.1 v 0.4 h -2 v 0.4 h -2.5 v 0.4 h -2.1 v 0.4 h -2.1 v 0.4 h -2.1 v 0.5 h -2.1 v 0.4 h -2.5 v 0.4 h -1.6 v 0.4 h -2.1 v 0.4 h -1.7 v 0.4 h -2.1 v 0.4 h -2.1 v 0.5 h -1.6 v 0.4 h -2.1 v 0.4 h -1.7 v 0.4 h -2.1 v 0.4 h -2 v 0.4 h -1.7 v 0.5 h -2.1 v 0.4 h -1.6 v 0.4 h -2.1 v 0.4 h -1.7 v 0.4 h -1.7 v 0.4 h -1.6 v 0.5 h -1.7 v 0.4 h -1.7 v 0.4 h -1.6 v 0.4 h -1.7 v 0.4 h -2.1 v 0.4 h -1.6 v 0.5 h -1.7 v 0.4 h -1.7 v 0.4 h -1.6 v 0.4 h -1.7 v 0.4 h -1.7 v 0.4 h -1.6 v 0.5 h -1.7 v 0.4 h -1.7 v 0.4 h -1.2 v 0.4 h -1.7 v 0.4 h -1.7 v 0.4 h -1.2 v 0.5 h -1.7 v 0.4 h -1.6 v 0.4 h -1.7 v 0.4 h -1.3 v 0.4 h -1.6 v 0.4 h -1.7 v 0.5 h -1.2 v 0.4 h -1.7 v 0.4 h -1.7 v 0.4 h -1.2 v 0.4 h -1.7 v 0.4 h -1.2 v 0.5 h -1.7 v 0.4 h -1.2 v 0.4 h -1.7 v 0.4 h -1.3 v 0.4 h -1.2 v 0.4 h -1.7 v 0.5 h -1.2 v 0.4 h -1.3 v 0.4 h -1.6 v 0.4 h -1.3 v 0.4 h -1.2 v 0.4 h -1.7 v 0.5 h -1.3 v 0.4 h -1.6 v 0.4 h -1.3 v 0.4 h -1.2 v 0.4 h -1.7 v 0.4 h -1.2 v 0.5 h -1.3 v 0.4 h -1.2 v 0.4 h -1.3 v 0.4 h -1.2 v 0.4 h -1.3 v 0.4 h -1.2 v 0.5 h -1.3 v 0.4 h -1.2 v 0.4 h -1.3 v 0.4 h -1.7 v 0.4 h -1.2 v 0.4 h -1.3 v 0.5 h -1.2 v 0.4 h -1.3 v 0.4 h -1.2 v 0.4 h -1.3 v 0.4 h -1.2 v 0.4 h -1.3 v 0.5 h -1.2 v 0.4 h -1.3 v 0.4 h -1.2 v 0.4 h -1.3 v 0.4 h -1.2 v 0.4 h -1.3 v 0.5 h -0.8 v 0.4 h -1.2 v 0.4 h -1.3 v 0.4 h -1.2 v 0.4 h -1.3 v 0.4 h -1.2 v 0.5 h -0.9 v 0.4 h -1.2 v 0.4 h -1.3 v 0.4 h -1.2 v 0.4 h -1.3 v 0.4 h -1.2 v 0.5 h -0.8 v 0.4 h -1.3 v 0.4 h -1.2 v 0.4 h -1.3 v 0.4 h -1.2 v 0.4 h -0.9 v 0.5 h -1.2 v 0.4 h -1.3 v 0.4 h -0.8 v 0.4 h -1.3 v 0.4 h -0.8 v 0.4 h -1.2 v 0.5 h -1.3 v 0.4 h -0.8 v 0.4 h -1.3 v 0.4 h -1.2 v 0.4 h -0.9 v 0.4 h -1.2 v 0.5 h -0.8 v 0.4 h -1.3 v 0.4 h -1.2 v 0.4 h -0.9 v 0.4 h -1.2 v 0.4 h -1.3 v 0.5 h -0.8 v 0.4 h -1.3 v 0.4 h -1.2 v 0.4 h -0.8 v 0.4 h -0.9 v 0.4 h -1.2 v 0.5 h -0.9 v 0.4 h -1.2 v 0.4 h -0.8 v 0.4 h -1.3 v 0.4 h -0.8 v 0.4 h -1.3 v 0.5 h -0.8 v 0.4 h -0.8 v 0.4 h -1.3 v 0.4 h -0.8 v 0.4 h -1.3 v 0.4 h -0.8 v 0.5 h -1.3 v 0.4 h -0.8 v 0.4 h -1.2 v 0.4 h -0.9 v 0.4 h -0.8 v 0.4 h -1.2 v 0.4 h -0.9 v 0.5 h -1.2 v 0.4 h -0.9 v 0.4 h -1.2 v 0.4 h -0.8 v 0.4 h -0.9 v 0.4 h -0.8 v 0.5 h -1.3 v 0.4 h -0.8 v 0.4 h -0.8 v 0.4 h -1.3 v 0.4 h -0.8 v 0.4 h -0.8 v 0.5 h -0.9 v 0.4 h -1.2 v 0.4 h -0.9 v 0.4 h -0.8 v 0.4 h -1.2 v 0.4 h -0.9 v 0.5 h -0.8 v 0.4 h -0.8 v 0.4 h -1.3 v 0.4 h -0.8 v 0.4 h -0.9 v 0.4 h -1.2 v 0.5 h -0.8 v 0.4 h -0.9 v 0.4 h -0.8 v 0.4 h -1.3 v 0.4 h -0.8 v 0.4 h -0.8 v 0.5 h -0.9 v 0.4 h -0.8 v 0.4 h -0.8 v 0.4 h -1.3 v 0.4 h -0.8 v 0.4 h -0.8 v 0.5 h -0.9 v 0.4 h -0.8 v 0.4 h -0.8 v 0.4 h -0.9 v 0.4 h -1.2 v 0.4 h -0.9 v 0.5 h -0.8 v 0.4 h -0.8 v 0.4 h -0.9 v 0.4 h -0.8 v 0.4 h -0.8 v 0.4 h -0.9 v 0.5 h -1.2 v 0.4 h -0.8 v 0.4 h -0.9 v 0.4 h -0.8 v 0.4 h -0.8 v 0.4 h -0.9 v 0.5 h -0.8 v 0.4 h -0.8 v 0.4 h -0.9 v 0.4 h -0.8 v 0.4 h -0.8 v 0.4 h -0.9 v 0.5 h -0.8 v 0.4 h -1.2 v 0.4 h -0.9 v 0.4 h -0.8 v 0.4 h -0.8 v 0.4 h -0.9 v 0.5 h -0.8 v 0.4 h -0.8 v 0.4 h -0.9 v 0.4 h -0.8 v 0.4 h -0.8 v 0.4 h -0.9 v 0.5 h -0.8 v 0.4 h -0.8 v 0.4 h -0.9 v 0.4 h -0.8 v 0.4 h -0.8 v 0.4 h -0.9 v 0.5 h -0.8 v 0.4 h -0.8 v 0.4 h -0.9 v 0.4 h -0.8 v 0.4 h -0.8 v 0.4 h -0.9 v 0.5 h -0.8 v 0.4 h -0.4 v 0.4 h -0.9 v 0.4 h -0.8 v 0.4 h -0.8 v 0.4 h -0.9 v 0.5 h -0.8 v 0.4 h -0.8 v 0.4 h -0.9 v 0.4 h -0.8 v 0.4 h -0.4 v 0.4 h -0.8 v 0.5 h -0.9 v 0.4 h -0.8 v 0.4 h -0.8 v 0.4 h -0.9 v 0.4 h -0.8 v 0.4 h -0.8 v 0.5 h -0.9 v 0.4 h -0.8 v 0.4 h -0.4 v 0.4 h -0.9 v 0.4 h -0.8 v 0.4 h -0.8 v 0.5 h -0.9 v 0.4 h -0.8 v 0.4 h -0.8 v 0.4 h -0.9 v 0.4 h -0.4 v 0.4 h -0.8 v 0.5 h -0.8 v 0.4 h -0.9 v 0.4 h -0.8 v 0.4 h -0.4 v 0.4 h -0.9 v 0.4 h -0.8 v 0.5 h -0.8 v 0.4 h -0.9 v 0.4 h -0.4 v 0.4 h -0.8 v 0.4 h -0.8 v 0.4 h -0.9 v 0.5 h -0.8 v 0.4 h -0.4 v 0.4 h -0.9 v 0.4 h -0.8 v 0.4 h -0.8 v 0.4 h -0.4 v 0.5 h -0.9 v 0.4 h -0.8 v 0.4 h -0.8 v 0.4 h -0.9 v 0.4 h -0.4 v 0.4 h -0.8 v 0.4 h -0.8 v 0.5 h -0.9 v 0.4 h -0.8 v 0.4 h -0.4 v 0.4 h -0.9 v 0.4 h -0.8 v 0.4 h -0.8 v 0.5 h -0.4 v 0.4 h -0.9 v 0.4 h -0.8 v 0.4 h -0.4 v 0.4 h -0.9 v 0.4 h -0.8 v 0.5 h -0.4 v 0.4 h -0.8 v 0.4 h -0.9 v 0.4 h -0.4 v 0.4 h -0.8 v 0.4 h -0.9 v 0.5 h -0.8 v 0.4 h -0.4 v 0.4 h -0.8 v 0.4 h -0.9 v 0.4 h -0.4 v 0.4 h -0.8 v 0.5 h -0.9 v 0.4 h -0.4 v 0.4 h -0.8 v 0.4 h -0.8 v 0.4 h -0.5 v 0.4 h -0.8 v 0.5 h -0.8 v 0.4 h -0.4 v 0.4 h -0.9 v 0.4 h -0.8 v 0.4 h -0.8 v 0.4 h -0.5 v 0.5 h -0.8 v 0.4 h -0.4 v 0.4 h -0.8 v 0.4 h -0.9 v 0.4 h -0.4 v 0.4 h -0.8 v 0.5 h -0.4 v 0.4 h -0.9 v 0.4 h -0.8 v 0.4 h -0.4 v 0.4 h -0.9 v 0.4 h -0.4 v 0.5 h -0.8 v 0.4 h -0.8 v 0.4 h -0.5 v 0.4 h -0.8 v 0.4 h -0.4 v 0.4 h -0.8 v 0.5 h -0.9 v 0.4 h -0.4 v 0.4 h -0.8 v 0.4 h -0.4 v 0.4 h -0.9 v 0.4 h -0.8 v 0.5 h -0.4 v 0.4 h -0.9 v 0.4 h -0.8 v 0.4 h -0.4 v 0.4 h -0.8 v 0.4 h -0.5 v 0.5 h -0.8 v 0.4 h -0.8 v 0.4 h -0.4 v 0.4 h -0.9 v 0.4 h -0.4 v 0.4 h -0.8 v 0.5 h -0.4 v 0.4 h -0.9 v 0.4 h -0.4 v 0.4 h -0.8 v 0.4 h -0.4 v 0.4 h -0.9 v 0.5 h -0.4 v 0.4 h -0.8 v 0.4 h -0.4 v 0.4 h -0.9 v 0.4 h -0.4 v 0.4 h -0.8 v 0.5 h -0.4 v 0.4 h -0.9 v 0.4 h -0.4 v 0.4 h -0.8 v 0.4 h -0.8 v 0.4 h -0.5 v 0.5 h -0.8 v 0.4 h -0.4 v 0.4 h -0.8 v 0.4 h -0.5 v 0.4 h -0.8 v 0.4 h -0.4 v 0.5 h -0.8 v 0.4 h -0.5 v 0.4 h -0.8 v 0.4 h -0.4 v 0.4 h -0.8 v 0.4 h -0.5 v 0.5 h -0.8 v 0.4 h -0.4 v 0.4 h -0.8 v 0.4 h -0.5 v 0.4 h -0.8 v 0.4 h -0.4 v 0.5 h -0.8 v 0.4 h -0.5 v 0.4 h -0.4 v 0.4 h -0.8 v 0.4 h -0.4 v 0.4 h -0.9 v 0.5 h -0.4 v 0.4 h -0.8 v 0.4 h -0.4 v 0.4 h -0.9 v 0.4 h -0.4 v 0.4 h -0.4 v 0.5 h -0.8 v 0.4 h -0.4 v 0.4 h -0.9 v 0.4 h -0.4 v 0.4 h -0.8 v 0.4 h -0.4 v 0.5 h -0.5 v 0.4 h -0.8 v 0.4 h -0.4 v 0.4 h -0.8 v 0.4 h -0.5 v 0.4 h -0.8 v 0.5 h -0.4 v 0.4 h -0.8 v 0.4 h -0.5 v 0.4 h -0.4 v 0.4 h -0.8 v 0.4 h -0.4 v 0.5 h -0.9 v 0.4 h -0.4 v 0.4 h -0.8 v 0.4 h -0.4 v 0.4 h -0.4 v 0.4 h -0.9 v 0.4 h -0.4 v 0.5 h -0.4 v 0.4 h -0.8 v 0.4 h -0.5 v 0.4 h -0.8 v 0.4 h -0.4 v 0.4 h -0.4 v 0.5 h -0.9 v 0.4 h -0.4 v 0.4 h -0.4 v 0.4 h -0.8 v 0.4 h -0.4 v 0.4 h -0.9 v 0.5 h -0.4 v 0.4 h -0.4 v 0.4 h -0.8 v 0.4 h -0.5 v 0.4 h -0.4 v 0.4 h -0.8 v 0.5 h -0.4 v 0.4 h -0.9 v 0.4 h -0.4 v 0.4 h -0.4 v 0.4 h -0.8 v 0.4 h -0.4 v 0.5 h -0.5 v 0.4 h -0.8 v 0.4 h -0.4 v 0.4 h -0.4 v 0.4 h -0.9 v 0.4 h -0.4 v 0.5 h -0.8 v 0.4 h -0.4 v 0.4 h -0.4 v 0.4 h -0.9 v 0.4 h -0.4 v 0.4 h -0.4 v 0.5 h -0.4 v 0.4 h -0.9 v 0.4 h -0.4 v 0.4 h -0.4 v 0.4 h -0.8 v 0.4 h -0.4 v 0.5 h -0.4 v 0.4 h -0.9 v 0.4 h -0.4 v 0.4 h -0.4 v 0.4 h -0.8 v 0.4 h -0.5 v 0.5 h -0.4 v 0.4 h -0.4 v 0.4 h -0.8 v 0.4 h -0.4 v 0.4 h -0.5 v 0.4 h -0.8 v 0.5 h -0.4 v 0.4 h -0.4 v 0.4 h -0.9 v 0.4 h -0.4 v 0.4 h -0.4 v 0.4 h -0.4 v 0.5 h -0.8 v 0.4 h -0.5 v 0.4 h -0.4 v 0.4 h -0.8 v 0.4 h -0.4 v 0.4 h -0.4 v 0.5 h -0.9 v 0.4 h -0.4 v 0.4 h -0.4 v 0.4 h -0.8 v 0.4 h -0.5 v 0.4 h -0.4 v 0.5 h -0.4 v 0.4 h -0.4 v 0.4 h -0.8 v 0.4 h -0.5 v 0.4 h -0.4 v 0.4 h -0.4 v 0.5 h -0.8 v 0.4 h -0.4 v 0.4 h -0.5 v 0.4 h -0.4 v 0.4 h -0.8 v 0.4 h -0.4 v 0.5 h -0.4 v 0.4 h -0.5 v 0.4 h -0.8 v 0.4 h -0.4 v 0.4 h -0.4 v 0.4 h -0.4 v 0.5 h -0.9 v 0.4 h -0.4 v 0.4 h -0.4 v 0.4 h -0.4 v 0.4 h -0.9 v 0.4 h -0.4 v 0.5 h -0.4 v 0.4 h -0.4 v 0.4 h -0.8 v 0.4 h -0.5 v 0.4 h -0.4 v 0.4 h -0.4 v 0.5 h -0.4 v 0.4 h -0.8 v 0.4 h -0.5 v 0.4 h -0.4 v 0.4 h -0.4 v 0.4 h -0.8 v 0.5 h -0.4 v 0.4 h -0.5 v 0.4 h -0.4 v 0.4 h -0.4 v 0.4 h -0.8 v 0.4 h -0.4 v 0.5 h -0.5 v 0.4 h -0.4 v 0.4 h -0.4 v 0.4 h -0.8 v 0.4 h -0.4 v 0.4 h -0.5 v 0.5 h -0.4 v 0.4 h -0.4 v 0.4 h -0.8 v 0.4 h -0.4 v 0.4 h -0.5 v 0.4 h -0.4 v 0.5 h -0.4 v 0.4 h -0.4 v 0.4 h -0.8 v 0.4 h -0.5 v 0.4 h -0.4 v 0.4 h -0.4 v 0.5 h -0.4 v 0.4 h -0.8 v 0.4 h -0.5 v 0.4 h -0.4 v 0.4 h -0.4 v 0.4 h -0.4 v 0.4 h -0.4 v 0.5 h -0.9 v 0.4 h -0.4 v 0.4 h -0.4 v 0.4 h -0.4 v 0.4 h -0.4 v 0.4 h -0.9 v 0.5 h -0.4 v 0.4 h -0.4 v 0.4 h -0.4 v 0.4 h -0.4 v 0.4 h -0.4 v 0.4 h -0.9 v 0.5 h -0.4 v 0.4 h -0.4 v 0.4 h -0.4 v 0.4 h -0.4 v 0.4 h -0.5 v 0.4 h -0.4 v 0.5 h -0.4 v 0.4 h -0.8 v 0.4 h -0.4 v 0.4 h -0.4 v 0.4 h -0.5 v 0.4 h -0.4 v 0.5 h -0.4 v 0.4 h -0.4 v 0.4 h -0.4 v 0.4 h -0.9 v 0.4 h -0.4 v 0.4 h -0.4 v 0.5 h -0.4 v 0.4 h -0.4 v 0.4 h -0.4 v 0.4 h -0.5 v 0.4 h -0.4 v 0.4 h -0.8 v 0.5 h -0.4 v 0.4 h -0.4 v 0.4 h -0.5 v 0.4 h -0.4 v 0.4 h -0.4 v 0.4 h -0.4 v 0.5 h -0.4 v 0.4 h -0.9 v 0.4 h -0.4 v 0.4 h -0.4 v 0.4 h -0.4 v 0.4 h -0.4 v 0.5 h -0.4 v 0.4 h -0.5 v 0.4 h -0.4 v 0.4 h -0.8 v 0.4 h -0.4 v 0.4 h -0.4 v 0.5 h -0.5 v 0.4 h -0.4 v 0.4 h -0.4 v 0.4 h -0.4 v 0.4 h -0.4 v 0.4 h -0.4 v 0.5 h -0.5 v 0.4 h -0.4 v 0.4 h -0.4 v 0.4 h -0.8 v 0.4 h -0.4 v 0.4 h -0.5 v 0.5 h -0.4 v 0.4 h -0.4 v 0.4 h -0.4 v 0.4 h -0.4 v 0.4 h -0.4 v 0.4 h -0.5 v 0.5 h -0.4 v 0.4 h -0.4 v 0.4 h -0.4 v 0.4 h -0.4 v 0.4 h -0.4 v 0.4 h -0.9 v 0.5 h -0.4 v 0.4 h -0.4 v 0.4 h -0.4 v 0.4 h -0.4 v 0.4 h -0.5 v 0.4 h -0.4 v 0.5 h -0.4 v 0.4 h -0.4 v 0.4 h -0.4 v 0.4 h -0.4 v 0.4 h -0.5 v 0.4 h -0.4 v 0.5 h -0.8 v 0.4 h -0.4 v 0.4 h -0.4 v 0.4 h -0.5 v 0.4 h -0.4 v 0.4 h -0.4 v 0.5 h -0.4 v 0.4 h -0.4 v 0.4 h -0.4 v 0.4 h -0.5 v 0.4 h -0.4 v 0.4 h -0.4 v 0.5 h -0.4 v 0.4 h -0.4 v 0.4 h -0.4 v 0.4 h -0.5 v 0.4 h -0.4 v 0.4 h -0.4 v 0.5 h -0.4 v 0.4 h -0.4 v 0.4 h -0.4 v 0.4 h -0.5 v 0.4 h -0.4 v 0.4 h -0.4 v 0.5 h -0.4 v 0.4 h -0.4 v 0.4 h -0.4 v 0.4 h -0.5 v 0.4 h -0.4 v 0.4 h -0.4 v 0.5 h -0.4 v 0.4 h -0.4 v 0.4 h -0.9 v 0.4 h -0.4 v 0.4 h -0.4 v 0.4 h -0.4 v 0.5 h -0.4 v 0.4 h -0.4 v 0.4 h -0.5 v 0.4 h -0.4 v 0.4 h -0.4 v 0.4 h -0.4 v 0.5 h -0.4 v 0.4 h -0.4 v 0.4 h -0.5 v 0.4 h -0.4 v 0.4 h -0.4 v 0.4 h -0.4 v 0.5 h -0.4 v 0.4 h -0.4 v 0.4 h -0.5 v 0.4 h -0.4 v 0.4 h -0.4 v 0.4 h -0.4 v 0.4 h -0.4 v 0.5 h -0.4 v 0.4 h -0.5 v 0.4 h -0.4 v 0.4 h -0.4 v 0.4 h -0.4 v 0.4 h -0.4 v 0.5 h -0.4 v 0.4 h -0.4 v 0.4 h -0.5 v 0.4 h -0.4 v 0.8 h -0.4 v 0.5 h -0.4 v 0.4 h -0.4 v 0.4 h -0.4 v 0.4 h -0.5 v 0.4 h -0.4 v 0.4 h -0.4 v 0.5 h -0.4 v 0.4 h -0.4 v 0.4 h -0.4 v 0.4 h -0.5 v 0.4 h -0.4 v 0.4 h -0.4 v 0.5 h -0.4 v 0.4 h -0.4 v 0.4 h -0.4 v 0.4 h -0.5 v 0.4 h -0.4 v 0.4 h -0.4 v 0.5 h -0.4 v 0.4 h -0.4 v 0.4 h -0.4 v 0.4 h -0.5 v 0.4 h -0.4 v 0.4 h -0.4 v 0.5 h -0.4 v 0.4 h -0.4 v 0.4 h -0.4 v 0.4 h -0.5 v 0.4 h -0.4 v 0.4 h -0.4 v 0.5 h -0.4 v 0.8 h -0.4 v 0.4 h -0.4 v 0.4 h -0.5 v 0.4 h -0.4 v 0.5 h -0.4 v 0.4 h -0.4 v 0.4 h -0.4 v 0.4 h -0.4 v 0.4 h -0.5 v 0.4 h -0.4 v 0.5 h -0.4 v 0.4 h -0.4 v 0.4 h -0.4 v 0.4 h -0.4 v 0.8 h -0.5 v 0.5 h -0.4 v 0.4 h -0.4 v 0.4 h -0.4 v 0.4 h -0.4 v 0.4 h -0.4 v 0.4 h -0.5 v 0.5 h -0.4 v 0.4 h -0.4 v 0.4 h -0.4 v 0.4 h -0.4 v 0.4 h -0.4 v 0.4 h -0.5 v 0.9 h -0.4 v 0.4 h -0.4 v 0.4 h -0.4 v 0.4 h -0.4 v 0.4 h -0.4 v 0.5 h -0.5 v 0.4 h -0.4 v 0.4 h -0.4 v 0.4 h -0.4 v 0.4 h -0.4 v 0.4 h -0.4 v 0.5 h -0.5 v 0.4 h -0.4 v 0.8 h -0.4 v 0.4 h -0.4 v 0.4 h -0.4 v 0.5 h -0.4 v 0.4 h -0.5 v 0.4 h -0.4 v 0.4 h -0.4 v 0.8 h -0.4 v 0.5 h -0.4 v 0.4 h -0.4 v 0.4 h -0.5 v 0.4 h -0.4 v 0.4 h -0.4 v 0.4 h -0.4 v 0.5 h -0.4 v 0.8 h -0.4 v 0.4 h -0.5 v 0.4 h -0.4 v 0.4 h -0.4 v 0.5 h -0.4 v 0.4 h -0.4 v 0.4 h -0.4 v 0.4 h -0.5 v 0.8 h -0.4 v 0.5 h -0.4 v 0.4 h -0.4 v 0.4 h -0.4 v 0.4 h -0.4 v 0.4 h -0.5 v 0.4 h -0.4 v 0.5 h -0.4 v 0.8 h -0.4 v 0.4 h -0.4 v 0.4 h -0.4 v 0.4 h -0.5 v 0.5 h -0.4 v 0.4 h -0.4 v 0.4 h -0.4 v 0.4 h -0.4 v 0.8 h -0.4 v 0.5 h -0.5 v 0.4 h -0.4 v 0.4 h -0.4 v 0.4 h -0.4 v 0.4 h -0.4 v 0.8 h -0.4 v 0.5 h -0.5 v 0.4 h -0.4 v 0.4 h -0.4 v 0.4 h -0.4 v 0.8 h -0.4 v 0.5 h -0.4 v 0.4 h -0.5 v 0.4 h -0.4 v 0.4 h -0.4 v 0.4 h -0.4 v 0.9 h -0.4 v 0.4 h -0.4 v 0.4 h -0.5 v 0.4 h -0.4 v 0.4 h -0.4 v 0.9 h -0.4 v 0.4 h -0.4 v 0.4 h -0.4 v 0.4 h -0.5 v 0.4 h -0.4 v 0.4 h -0.4 v 0.9 h -0.4 v 0.4 h -0.4 v 0.4 h -0.4 v 0.4 h -0.4 v 0.4 h -0.5 v 0.9 h -0.4 v 0.4 h -0.4 v 0.4 h -0.4 v 0.4 h -0.4 v 0.4 h -0.4 v 0.5 h -0.5 v 0.8 h -0.4 v 0.4 h -0.4 v 0.4 h -0.4 v 0.4 h -0.4 v 0.9 h -0.4 v 0.4 h -0.5 v 0.4 h -0.4 v 0.4 h -0.4 v 0.9 h -0.4 v 0.4 h -0.4 v 0.4 h -0.4 v 0.4 h -0.5 v 0.4 h -0.4 v 0.9 h -0.4 v 0.4 h -0.4 v 0.4 h -0.4 v 0.4 h -0.4 v 0.8 h -0.5 v 0.5 h -0.4 v 0.4 h -0.4 v 0.4 h -0.4 v 0.8 h -0.4 v 0.4 h -0.4 v 0.5 h -0.5 v 0.4 h -0.4 v 0.8 h -0.4 v 0.4 h -0.4 v 0.4 h -0.4 v 0.5 h -0.4 v 0.8 h -0.5 v 0.4 h -0.4 v 0.4 h -0.4 v 0.4 h -0.4 v 0.9 h -0.4 v 0.4 h -0.4 v 0.4 h -0.5 v 0.4 h -0.4 v 0.9 h -0.4 v 0.4 h -0.4 v 0.4 h -0.4 v 0.4 h -0.4 v 0.4 h -0.5 v 0.9 h -0.4 v 0.4 h -0.4 v 0.4 h -0.4 v 0.8 h -0.4 v 0.4 h -0.4 v 0.5 h -0.5 v 0.8 h -0.4 v 0.4 h -0.4 v 0.4 h -0.4 v 0.9 h -0.4 v 0.4 h -0.4 v 0.4 h -0.5 v 0.4 h -0.4 v 0.8 h -0.4 v 0.5 h -0.4 v 0.4 h -0.4 v 0.8 h -0.4 v 0.4 h -0.5 v 0.4 h -0.4 v 0.9 h -0.4 v 0.4 h -0.4 v 0.4 h -0.4 v 0.4 h -0.4 v 0.9 h -0.5 v 0.4 h -0.4 v 0.4 h -0.4 v 0.8 h -0.4 v 0.4 h -0.4 v 0.5 h -0.4 v 0.8 h -0.5 v 0.4 h -0.4 v 0.4 h -0.4 v 0.9 h -0.4 v 0.4 h -0.4 v 0.4 h -0.4 v 0.4 h -0.5 v 0.8 h -0.4 v 0.5 h -0.4 v 0.4 h -0.4 v 0.8 h -0.4 v 0.4 h -0.4 v 0.8 h -0.5 v 0.5 h -0.4 v 0.4 h -0.4 v 0.8 h -0.4 v 0.4 h -0.4 v 0.4 h -0.4 v 0.9 h -0.5 v 0.4 h -0.4 v 0.4 h -0.4 v 0.8 h -0.4 v 0.5 h -0.4 v 0.8 h -0.4 v 0.4 h -0.5 v 0.4 h -0.4 v 0.9 h -0.4 v 0.4 h -0.4 v 0.4 h -0.4 v 0.8 h -0.4 v 0.4 h -0.5 v 0.9 h -0.4 v 0.4 h -0.4 v 0.4 h -0.4 v 0.8 h -0.4 v 0.5 h -0.4 v 0.4 h -0.5 v 0.8 h -0.4 v 0.4 h -0.4 v 0.9 h -0.4 v 0.4 h -0.4 v 0.4 h -0.4 v 0.8 h -0.5 v 0.4 h -0.4 v 0.5 h -0.4 v 0.8 h -0.4 v 0.4 h -0.4 v 0.8 h -0.4 v 0.5 h -0.5 v 0.4 h -0.4 v 0.8 h -0.4 v 0.4 h -0.4 v 0.9 h -0.4 v 0.4 h -0.4 v 0.8 h -0.5 v 0.4 h -0.4 v 0.9 h -0.4 v 0.4 h -0.4 v 0.4 h -0.4 v 0.8 h -0.4 v 0.4 h -0.4 v 0.9 h -0.5 v 0.4 h -0.4 v 0.8 h -0.4 v 0.4 h -0.4 v 0.9 h -0.4 v 0.4 h -0.4 v 0.4 h -0.5 v 0.8 h -0.4 v 0.5 h -0.4 v 0.8 h -0.4 v 0.4 h -0.4 v 0.8 h -0.4 v 0.5 h -0.5 v 0.8 h -0.4 v 0.4 h -0.4 v 0.4 h -0.4 v 0.9 h -0.4 v 0.4 h -0.4 v 0.8 h -0.5 v 0.4 h -0.4 v 0.9 h -0.4 v 0.4 h -0.4 v 0.8 h -0.4 v 0.4 h -0.4 v 0.9 h -0.5 v 0.4 h -0.4 v 0.8 h -0.4 v 0.4 h -0.4 v 0.9 h -0.4 v 0.4 h -0.4 v 0.8 h -0.5 v 0.4 h -0.4 v 0.9 h -0.4 v 0.4 h -0.4 v 0.8 h -0.4 v 0.4 h -0.4 v 0.9 h -0.5 v 0.4 h -0.4 v 0.8 h -0.4 v 0.8 h -0.4 v 0.5 h -0.4 v 0.8 h -0.4 v 0.4 h -0.5 v 0.8 h -0.4 v 0.5 h -0.4 v 0.8 h -0.4 v 0.4 h -0.4 v 0.8 h -0.4 v 0.4 h -0.5 v 0.9 h -0.4 v 0.4 h -0.4 v 0.8 h -0.4 v 0.4 h -0.4 v 0.9 h -0.4 v 0.4 h -0.5 v 0.8 h -0.4 v 0.4 h -0.4 v 0.9 h -0.4 v 0.8 h -0.4 v 0.4 h -0.4 v 0.9 h -0.5 v 0.4 h -0.4 v 0.8 h -0.4 v 0.8 h -0.4 v 0.5 h -0.4 v 0.8 h -0.4 v 0.4 h -0.5 v 0.8 h -0.4 v 0.9 h -0.4 v 0.4 h -0.4 v 0.8 h -0.4 v 0.4 h -0.4 v 0.9 h -0.5 v 0.8 h -0.4 v 0.4 h -0.4 v 0.9 h -0.4 v 0.4 h -0.4 v 0.8 h -0.4 v 0.8 h -0.5 v 0.5 h -0.4 v 0.8 h -0.4 v 0.4 h -0.4 v 0.8 h -0.4 v 0.9 h -0.4 v 0.4 h -0.5 v 0.8 h -0.4 v 0.9 h -0.4 v 0.4 h -0.4 v 0.8 h -0.4 v 0.4 h -0.4 v 0.9 h -0.5 v 0.8 h -0.4 v 0.4 h -0.4 v 0.8 h -0.4 v 0.9 h -0.4 v 0.8 h -0.4 v 0.4 h -0.5 v 0.9 h -0.4 v 0.8 h -0.4 v 0.4 h -0.4 v 0.8 h -0.4 v 0.9 h -0.4 v 0.4 h -0.5 v 0.8 h -0.4 v 0.9 h -0.4 v 0.4 h -0.4 v 0.8 h -0.4 v 0.8 h -0.4 v 0.9 h -0.5 v 0.4 h -0.4 v 0.8 h -0.4 v 0.9 h -0.4 v 0.4 h -0.4 v 0.8 h -0.4 v 0.8 h -0.5 v 0.5 h -0.4 v 0.8 h -0.4 v 0.8 h -0.4 v 0.4 h -0.4 v 0.9 h -0.4 v 0.8 h -0.5 v 0.8 h -0.4 v 0.5 h -0.4 v 0.8 h -0.4 v 0.8 h -0.4 v 0.9 h -0.4 v 0.8 h -0.5 v 0.4 h -0.4 v 0.8 h -0.4 v 0.9 h -0.4 v 0.8 h -0.4 v 0.4 h -0.4 v 0.9 h -0.5 v 0.8 h -0.4 v 0.8 h -0.4 v 0.8 h -0.4 v 0.5 h -0.4 v 0.8 h -0.4 v 0.8 h -0.5 v 0.9 h -0.4 v 0.8 h -0.4 v 0.4 h -0.4 v 0.8 h -0.4 v 0.9 h -0.4 v 0.8 h -0.4 v 0.8 h -0.5 v 0.5 h -0.4 v 0.8 h -0.4 v 0.8 h -0.4 v 0.9 h -0.4 v 0.4 h -0.4 v 0.8 h -0.5 v 0.8 h -0.4 v 0.9 h -0.4 v 0.8 h -0.4 v 0.8 h -0.4 v 0.9 h -0.4 v 0.8 h -0.5 v 0.8 h -0.4 v 0.5 h -0.4 v 0.8 h -0.4 v 0.8 h -0.4 v 0.9 h -0.4 v 0.8 h -0.5 v 0.8 h -0.4 v 0.9 h -0.4 v 0.8 h -0.4 v 0.8 h -0.4 v 0.4 h -0.4 v 0.9 h -0.5 v 0.8 h -0.4 v 0.8 h -0.4 v 0.9 h -0.4 v 0.8 h -0.4 v 0.8 h -0.4 v 0.9 h -0.5 v 0.8 h -0.4 v 0.8 h -0.4 v 0.5 h -0.4 v 0.8 h -0.4 v 0.8 h -0.4 v 0.9 h -0.5 v 0.8 h -0.4 v 0.8 h -0.4 v 0.9 h -0.4 v 0.8 h -0.4 v 0.8 h -0.4 v 0.9 h -0.5 v 0.8 h -0.4 v 0.8 h -0.4 v 0.9 h -0.4 v 0.8 h -0.4 v 0.8 h -0.4 v 0.9 h -0.5 v 0.8 h -0.4 v 0.8 h -0.4 v 0.9 h -0.4 v 0.8 h -0.4 v 0.8 h -0.4 v 0.9 h -0.5 v 0.8 h -0.4 v 0.8 h -0.4 v 0.9 h -0.4 v 0.8 h -0.4 v 0.8 h -0.4 v 0.9 h -0.5 v 0.8 h -0.4 v 1.2 h -0.4 v 0.9 h -0.4 v 0.8 h -0.4 v 0.8 h -0.4 v 0.9 h -0.5 v 0.8 h -0.4 v 0.8 h -0.4 v 0.9 h -0.4 v 0.8 h -0.4 v 1.2 h -0.4 v 0.9 h -0.5 v 0.8 h -0.4 v 0.8 h -0.4 v 0.9 h -0.4 v 0.8 h -0.4 v 0.8 h -0.4 v 1.3 h -0.5 v 0.8 h -0.4 v 0.9 h -0.4 v 0.8 h -0.4 v 0.8 h -0.4 v 0.9 h -0.4 v 0.8 h -0.5 v 1.2 h -0.4 v 0.9 h -0.4 v 0.8 h -0.4 v 0.8 h -0.4 v 0.9 h -0.4 v 0.8 h -0.5 v 0.8 h -0.4 v 1.3 h -0.4 v 0.8 h -0.4 v 0.9 h -0.4 v 1.2 h -0.4 v 0.8 h -0.5 v 0.9 h -0.4 v 0.8 h -0.4 v 1.3 h -0.4 v 0.8 h -0.4 v 0.8 h -0.4 v 1.3 h -0.5 v 0.8 h -0.4 v 0.8 h -0.4 v 0.9 h -0.4 v 1.2 h -0.4 v 0.9 h -0.4 v 0.8 h -0.5 v 1.2 h -0.4 v 0.9 h -0.4 v 0.8 h -0.4 v 0.8 h -0.4 v 1.3 h -0.4 v 0.8 h -0.5 v 0.9 h -0.4 v 1.2 H 16300 v -0.4 h -0.4 v -0.8 h -0.4 v -0.9 h -0.4 v -0.8 h -0.5 v -1.3 h -0.4 v -0.8 h -0.4 v -0.8 h -0.4 v -1.3 h -0.4 v -0.8 h -0.4 v -0.8 h -0.5 v -0.9 h -0.4 v -1.2 h -0.4 v -0.9 h -0.4 v -0.8 h -0.4 v -1.2 h -0.4 v -0.9 h -0.5 v -0.8 h -0.4 v -0.8 h -0.4 v -1.3 h -0.4 v -0.8 h -0.4 v -0.9 h -0.4 v -1.2 h -0.5 v -0.8 h -0.4 v -0.9 h -0.4 v -0.8 h -0.4 v -1.3 h -0.4 v -0.8 h -0.4 v -0.8 h -0.5 v -0.9 h -0.4 v -0.8 h -0.4 v -1.2 h -0.4 v -0.9 h -0.4 v -0.8 h -0.4 v -0.8 h -0.5 v -0.9 h -0.4 v -0.8 h -0.4 v -0.8 h -0.4 v -0.9 h -0.4 v -1.2 h -0.4 v -0.9 h -0.5 v -0.8 h -0.4 v -0.8 h -0.4 v -0.9 h -0.4 v -0.8 h -0.4 v -0.8 h -0.4 v -1.3 h -0.5 v -0.8 h -0.4 v -0.8 h -0.4 v -0.9 h -0.4 v -0.8 h -0.4 v -0.8 h -0.4 v -0.9 h -0.5 v -1.2 h -0.4 v -0.8 h -0.4 v -0.9 h -0.4 v -0.8 h -0.4 v -0.8 h -0.4 v -0.9 h -0.5 v -0.8 h -0.4 v -0.8 h -0.4 v -0.9 h -0.4 v -0.8 h -0.4 v -0.8 h -0.4 v -0.9 h -0.5 v -0.8 h -0.4 v -0.8 h -0.4 v -0.9 h -0.4 v -0.8 h -0.4 v -0.8 h -0.4 v -0.9 h -0.5 v -0.8 h -0.4 v -0.8 h -0.4 v -0.9 h -0.4 v -0.8 h -0.4 v -0.8 h -0.4 v -0.9 h -0.5 v -0.8 h -0.4 v -0.8 h -0.4 v -0.9 h -0.4 v -0.8 h -0.4 v -0.8 h -0.4 v -0.9 h -0.5 v -0.8 h -0.4 v -0.8 h -0.4 v -0.9 h -0.4 v -0.8 h -0.4 v -0.4 h -0.4 v -0.9 h -0.5 v -0.8 h -0.4 v -0.8 h -0.4 v -0.9 h -0.4 v -0.8 h -0.4 v -0.8 h -0.4 v -0.9 h -0.5 v -0.8 h -0.4 v -0.4 h -0.4 v -0.8 h -0.4 v -0.9 h -0.4 v -0.8 h -0.4 v -0.8 h -0.5 v -0.9 h -0.4 v -0.8 h -0.4 v -0.8 h -0.4 v -0.9 h -0.4 v -0.8 h -0.4 v -0.4 h -0.5 v -0.9 h -0.4 v -0.8 h -0.4 v -0.8 h -0.4 v -0.9 h -0.4 v -0.8 h -0.4 v -0.8 h -0.5 v -0.4 h -0.4 v -0.9 h -0.4 v -0.8 h -0.4 v -0.8 h -0.4 v -0.9 h -0.4 v -0.4 h -0.5 v -0.8 h -0.4 v -0.9 h -0.4 v -0.8 h -0.4 v -0.8 h -0.4 v -0.4 h -0.4 v -0.9 h -0.5 v -0.8 h -0.4 v -0.8 h -0.4 v -0.9 h -0.4 v -0.4 h -0.4 v -0.8 h -0.4 v -0.8 h -0.5 v -0.9 h -0.4 v -0.4 h -0.4 v -0.8 h -0.4 v -0.9 h -0.4 v -0.8 h -0.4 v -0.8 h -0.5 v -0.4 h -0.4 v -0.9 h -0.4 v -0.8 h -0.4 v -0.8 h -0.4 v -0.9 h -0.4 v -0.4 h -0.4 v -0.8 h -0.5 v -0.9 h -0.4 v -0.4 h -0.4 v -0.8 h -0.4 v -0.8 h -0.4 v -0.5 h -0.4 v -0.8 h -0.5 v -0.8 h -0.4 v -0.9 h -0.4 v -0.4 h -0.4 v -0.8 h -0.4 v -0.8 h -0.4 v -0.5 h -0.5 v -0.8 h -0.4 v -0.8 h -0.4 v -0.4 h -0.4 v -0.9 h -0.4 v -0.8 h -0.4 v -0.4 h -0.5 v -0.9 h -0.4 v -0.8 h -0.4 v -0.8 h -0.4 v -0.4 h -0.4 v -0.9 h -0.4 v -0.8 h -0.5 v -0.4 h -0.4 v -0.9 h -0.4 v -0.8 h -0.4 v -0.4 h -0.4 v -0.8 h -0.4 v -0.9 h -0.5 v -0.4 h -0.4 v -0.8 h -0.4 v -0.9 h -0.4 v -0.4 h -0.4 v -0.8 h -0.4 v -0.4 h -0.5 v -0.9 h -0.4 v -0.8 h -0.4 v -0.4 h -0.4 v -0.8 h -0.4 v -0.5 h -0.4 v -0.8 h -0.5 v -0.8 h -0.4 v -0.4 h -0.4 v -0.9 h -0.4 v -0.4 h -0.4 v -0.8 h -0.4 v -0.9 h -0.5 v -0.4 h -0.4 v -0.8 h -0.4 v -0.4 h -0.4 v -0.9 h -0.4 v -0.8 h -0.4 v -0.4 h -0.5 v -0.8 h -0.4 v -0.5 h -0.4 v -0.8 h -0.4 v -0.8 h -0.4 v -0.4 h -0.4 v -0.9 h -0.5 v -0.8 h -0.4 v -0.4 h -0.4 v -0.9 h -0.4 v -0.4 h -0.4 v -0.8 h -0.4 v -0.4 h -0.5 v -0.9 h -0.4 v -0.4 h -0.4 v -0.8 h -0.4 v -0.4 h -0.4 v -0.9 h -0.4 v -0.4 h -0.5 v -0.8 h -0.4 v -0.8 h -0.4 v -0.4 h -0.4 v -0.9 h -0.4 v -0.4 h -0.4 v -0.8 h -0.5 v -0.4 h -0.4 v -0.9 h -0.4 v -0.4 h -0.4 v -0.8 h -0.4 v -0.4 h -0.4 v -0.9 h -0.5 v -0.4 h -0.4 v -0.8 h -0.4 v -0.4 h -0.4 v -0.9 h -0.4 v -0.4 h -0.4 v -0.8 h -0.5 v -0.4 h -0.4 v -0.9 h -0.4 v -0.4 h -0.4 v -0.8 h -0.4 v -0.4 h -0.4 v -0.9 h -0.5 v -0.4 h -0.4 v -0.8 h -0.4 v -0.4 h -0.4 v -0.9 h -0.4 v -0.4 h -0.4 v -0.8 h -0.5 v -0.4 h -0.4 v -0.9 h -0.4 v -0.4 h -0.4 v -0.8 h -0.4 v -0.4 h -0.4 v -0.5 h -0.5 v -0.8 h -0.4 v -0.4 h -0.4 v -0.8 h -0.4 v -0.5 h -0.4 v -0.8 h -0.4 v -0.4 h -0.5 v -0.8 h -0.4 v -0.5 h -0.4 v -0.4 h -0.4 v -0.8 h -0.4 v -0.4 h -0.4 v -0.9 h -0.5 v -0.4 h -0.4 v -0.8 h -0.4 v -0.4 h -0.4 v -0.9 h -0.4 v -0.4 h -0.4 v -0.4 h -0.5 v -0.8 h -0.4 v -0.4 h -0.4 v -0.9 h -0.4 v -0.4 h -0.4 v -0.8 h -0.4 v -0.4 h -0.5 v -0.9 h -0.4 v -0.4 h -0.4 v -0.4 h -0.4 v -0.8 h -0.4 v -0.5 h -0.4 v -0.4 h -0.5 v -0.8 h -0.4 v -0.4 h -0.4 v -0.9 h -0.4 v -0.4 h -0.4 v -0.4 h -0.4 v -0.8 h -0.4 v -0.4 h -0.5 v -0.5 h -0.4 v -0.8 h -0.4 v -0.4 h -0.4 v -0.8 h -0.4 v -0.5 h -0.4 v -0.4 h -0.5 v -0.8 h -0.4 v -0.4 h -0.4 v -0.4 h -0.4 v -0.9 h -0.4 v -0.4 h -0.4 v -0.8 h -0.5 v -0.4 h -0.4 v -0.5 h -0.4 v -0.8 h -0.4 v -0.4 h -0.4 v -0.4 h -0.4 v -0.9 h -0.5 v -0.4 h -0.4 v -0.8 h -0.4 v -0.4 h -0.4 v -0.4 h -0.4 v -0.9 h -0.4 v -0.4 h -0.5 v -0.4 h -0.4 v -0.8 h -0.4 v -0.4 h -0.4 v -0.5 h -0.4 v -0.8 h -0.4 v -0.4 h -0.5 v -0.4 h -0.4 v -0.9 h -0.4 v -0.4 h -0.4 v -0.4 h -0.4 v -0.8 h -0.4 v -0.4 h -0.5 v -0.5 h -0.4 v -0.4 h -0.4 v -0.8 h -0.4 v -0.4 h -0.4 v -0.4 h -0.4 v -0.9 h -0.5 v -0.4 h -0.4 v -0.4 h -0.4 v -0.8 h -0.4 v -0.5 h -0.4 v -0.4 h -0.4 v -0.4 h -0.5 v -0.8 h -0.4 v -0.4 h -0.4 v -0.5 h -0.4 v -0.8 h -0.4 v -0.4 h -0.4 v -0.4 h -0.5 v -0.9 h -0.4 v -0.4 h -0.4 v -0.4 h -0.4 v -0.8 h -0.4 v -0.4 h -0.4 v -0.5 h -0.5 v -0.4 h -0.4 v -0.8 h -0.4 v -0.4 h -0.4 v -0.4 h -0.4 v -0.9 h -0.4 v -0.4 h -0.5 v -0.4 h -0.4 v -0.4 h -0.4 v -0.9 h -0.4 v -0.4 h -0.4 v -0.4 h -0.4 v -0.4 h -0.5 v -0.8 h -0.4 v -0.5 h -0.4 v -0.4 h -0.4 v -0.4 h -0.4 v -0.8 h -0.4 v -0.4 h -0.5 v -0.5 h -0.4 v -0.4 h -0.4 v -0.4 h -0.4 v -0.8 h -0.4 v -0.4 h -0.4 v -0.5 h -0.5 v -0.4 h -0.4 v -0.8 h -0.4 v -0.4 h -0.4 v -0.4 h -0.4 v -0.5 h -0.4 v -0.8 h -0.5 v -0.4 h -0.4 v -0.4 h -0.4 v -0.4 h -0.4 v -0.9 h -0.4 v -0.4 h -0.4 v -0.4 h -0.5 v -0.4 h -0.4 v -0.9 h -0.4 v -0.4 h -0.4 v -0.4 h -0.4 v -0.4 h -0.4 v -0.8 h -0.5 v -0.5 h -0.4 v -0.4 h -0.4 v -0.4 h -0.4 v -0.4 h -0.4 v -0.8 h -0.4 v -0.5 h -0.5 v -0.4 h -0.4 v -0.4 h -0.4 v -0.4 h -0.4 v -0.8 h -0.4 v -0.5 h -0.4 v -0.4 h -0.5 v -0.4 h -0.4 v -0.4 h -0.4 v -0.4 h -0.4 v -0.9 h -0.4 v -0.4 h -0.4 v -0.4 h -0.5 v -0.4 h -0.4 v -0.4 h -0.4 v -0.9 h -0.4 v -0.4 h -0.4 v -0.4 h -0.4 v -0.4 h -0.5 v -0.4 h -0.4 v -0.4 h -0.4 v -0.9 h -0.4 v -0.4 h -0.4 v -0.4 h -0.4 v -0.4 h -0.5 v -0.4 h -0.4 v -0.9 h -0.4 v -0.4 h -0.4 v -0.4 h -0.4 v -0.4 h -0.4 v -0.4 h -0.4 v -0.5 h -0.5 v -0.8 h -0.4 v -0.4 h -0.4 v -0.4 h -0.4 v -0.4 h -0.4 v -0.4 h -0.4 v -0.9 h -0.5 v -0.4 h -0.4 v -0.4 h -0.4 v -0.4 h -0.4 v -0.4 h -0.4 v -0.5 h -0.4 v -0.4 h -0.5 v -0.4 h -0.4 v -0.8 h -0.4 v -0.4 h -0.4 v -0.5 h -0.4 v -0.4 h -0.4 v -0.4 h -0.5 v -0.4 h -0.4 v -0.4 h -0.4 v -0.4 h -0.4 v -0.9 h -0.4 v -0.4 h -0.4 v -0.4 h -0.5 v -0.4 h -0.4 v -0.4 h -0.4 v -0.5 h -0.4 v -0.4 h -0.4 v -0.4 h -0.4 v -0.8 h -0.5 v -0.4 h -0.4 v -0.5 h -0.4 v -0.4 h -0.4 v -0.4 h -0.4 v -0.4 h -0.4 v -0.4 h -0.5 v -0.4 h -0.4 v -0.9 h -0.4 v -0.4 h -0.4 v -0.4 h -0.4 v -0.4 h -0.4 v -0.4 h -0.5 v -0.5 h -0.4 v -0.4 h -0.4 v -0.4 h -0.4 v -0.8 h -0.4 v -0.4 h -0.4 v -0.5 h -0.5 v -0.4 h -0.4 v -0.4 h -0.4 v -0.4 h -0.4 v -0.4 h -0.4 v -0.4 h -0.4 v -0.5 h -0.5 v -0.4 h -0.4 v -0.4 h -0.4 v -0.4 h -0.4 v -0.8 h -0.4 v -0.5 h -0.4 v -0.4 h -0.5 v -0.4 h -0.4 v -0.4 h -0.4 v -0.4 h -0.4 v -0.4 h -0.4 v -0.5 h -0.4 v -0.4 h -0.5 v -0.4 h -0.4 v -0.4 h -0.4 v -0.4 h -0.4 v -0.4 h -0.4 v -0.9 h -0.4 v -0.4 h -0.5 v -0.4 h -0.4 v -0.4 h -0.4 v -0.4 h -0.4 v -0.5 h -0.4 v -0.4 h -0.4 v -0.4 h -0.5 v -0.4 h -0.4 v -0.4 h -0.4 v -0.4 h -0.4 v -0.5 h -0.4 v -0.4 h -0.4 v -0.4 h -0.5 v -0.8 h -0.4 v -0.4 h -0.4 v -0.5 h -0.4 v -0.4 h -0.4 v -0.4 h -0.4 v -0.4 h -0.5 v -0.4 h -0.4 v -0.4 h -0.4 v -0.5 h -0.4 v -0.4 h -0.4 v -0.4 h -0.4 v -0.4 h -0.5 v -0.4 h -0.4 v -0.4 h -0.4 v -0.5 h -0.4 v -0.4 h -0.4 v -0.4 h -0.4 v -0.4 h -0.5 v -0.4 h -0.4 v -0.4 h -0.4 v -0.5 h -0.4 v -0.4 h -0.4 v -0.4 h -0.4 v -0.4 h -0.5 v -0.4 h -0.4 v -0.4 h -0.4 v -0.5 h -0.4 v -0.4 h -0.4 v -0.4 h -0.4 v -0.8 h -0.5 v -0.4 h -0.4 v -0.5 h -0.4 v -0.4 h -0.4 v -0.4 h -0.4 v -0.4 h -0.4 v -0.4 h -0.5 v -0.4 h -0.4 v -0.5 h -0.4 v -0.4 h -0.4 v -0.4 h -0.4 v -0.4 h -0.4 v -0.4 h -0.5 v -0.4 h -0.4 v -0.5 h -0.4 v -0.4 h -0.4 v -0.4 h -0.4 v -0.4 h -0.4 v -0.4 h -0.5 v -0.4 h -0.4 v -0.4 h -0.4 v -0.5 h -0.4 v -0.4 h -0.4 v -0.4 h -0.4 v -0.4 h -0.5 v -0.4 h -0.4 v -0.4 h -0.4 v -0.5 h -0.4 v -0.4 h -0.4 v -0.4 h -0.4 v -0.4 h -0.4 v -0.4 h -0.5 v -0.4 h -0.4 v -0.5 h -0.4 v -0.4 h -0.4 v -0.4 h -0.4 v -0.4 h -0.4 v -0.4 h -0.5 v -0.4 h -0.4 v -0.5 h -0.4 v -0.4 h -0.8 v -0.4 h -0.4 v -0.4 h -0.5 v -0.4 h -0.4 v -0.4 h -0.4 v -0.5 h -0.4 v -0.4 h -0.4 v -0.4 h -0.4 v -0.4 h -0.5 v -0.4 h -0.4 v -0.4 h -0.4 v -0.5 h -0.4 v -0.4 h -0.4 v -0.4 h -0.4 v -0.4 h -0.5 v -0.4 h -0.4 v -0.4 h -0.4 v -0.5 h -0.4 v -0.4 h -0.4 v -0.4 h -0.4 v -0.4 h -0.5 v -0.4 h -0.4 v -0.4 h -0.4 v -0.5 h -0.4 v -0.4 h -0.4 v -0.4 h -0.4 v -0.4 h -0.5 v -0.4 h -0.4 v -0.4 h -0.4 v -0.5 h -0.8 v -0.4 h -0.4 v -0.4 h -0.5 v -0.4 h -0.4 v -0.4 h -0.4 v -0.4 h -0.4 v -0.5 h -0.4 v -0.4 h -0.4 v -0.4 h -0.5 v -0.4 h -0.4 v -0.4 h -0.4 v -0.4 h -0.4 v -0.5 h -0.4 v -0.4 h -0.4 v -0.4 h -0.9 v -0.4 h -0.4 v -0.4 h -0.4 v -0.4 h -0.4 v -0.5 h -0.4 v -0.4 h -0.5 v -0.4 h -0.4 v -0.4 h -0.4 v -0.4 h -0.4 v -0.4 h -0.4 v -0.5 h -0.4 v -0.4 h -0.5 v -0.4 h -0.4 v -0.4 h -0.8 v -0.4 h -0.4 v -0.4 h -0.4 v -0.5 h -0.5 v -0.4 h -0.4 v -0.4 h -0.4 v -0.4 h -0.4 v -0.4 h -0.4 v -0.4 h -0.4 v -0.5 h -0.5 v -0.4 h -0.4 v -0.4 h -0.4 v -0.4 h -0.8 v -0.4 h -0.4 v -0.4 h -0.5 v -0.5 h -0.4 v -0.4 h -0.4 v -0.4 h -0.4 v -0.4 h -0.4 v -0.4 h -0.4 v -0.4 h -0.9 v -0.5 h -0.4 v -0.4 h -0.4 v -0.4 h -0.4 v -0.4 h -0.4 v -0.4 h -0.5 v -0.4 h -0.4 v -0.5 h -0.4 v -0.4 h -0.8 v -0.4 h -0.4 v -0.4 h -0.5 v -0.4 h -0.4 v -0.4 h -0.4 v -0.5 h -0.4 v -0.4 h -0.4 v -0.4 h -0.4 v -0.4 h -0.9 v -0.4 h -0.4 v -0.4 h -0.4 v -0.5 h -0.4 v -0.4 h -0.4 v -0.4 h -0.5 v -0.4 h -0.4 v -0.4 h -0.4 v -0.4 h -0.8 v -0.5 h -0.4 v -0.4 h -0.5 v -0.4 h -0.4 v -0.4 h -0.4 v -0.4 h -0.4 v -0.4 h -0.4 v -0.5 h -0.4 v -0.4 h -0.9 v -0.4 h -0.4 v -0.4 h -0.4 v -0.4 h -0.4 v -0.4 h -0.4 v -0.5 h -0.9 v -0.4 h -0.4 v -0.4 h -0.4 v -0.4 h -0.4 v -0.4 h -0.4 v -0.4 h -0.4 v -0.5 h -0.9 v -0.4 h -0.4 v -0.4 h -0.4 v -0.4 h -0.4 v -0.4 h -0.4 v -0.4 h -0.9 v -0.4 h -0.4 v -0.5 h -0.4 v -0.4 h -0.4 v -0.4 h -0.4 v -0.4 h -0.9 v -0.4 h -0.4 v -0.4 h -0.4 v -0.5 h -0.4 v -0.4 h -0.4 v -0.4 h -0.5 v -0.4 h -0.8 v -0.4 h -0.4 v -0.4 h -0.4 v -0.5 h -0.4 v -0.4 h -0.5 v -0.4 h -0.8 v -0.4 h -0.4 v -0.4 h -0.4 v -0.4 h -0.4 v -0.5 h -0.5 v -0.4 h -0.4 v -0.4 h -0.8 v -0.4 h -0.4 v -0.4 h -0.4 v -0.4 h -0.5 v -0.5 h -0.4 v -0.4 h -0.8 v -0.4 h -0.4 v -0.4 h -0.4 v -0.4 h -0.5 v -0.4 h -0.8 v -0.5 h -0.4 v -0.4 h -0.4 v -0.4 h -0.4 v -0.4 h -0.9 v -0.4 h -0.4 v -0.4 h -0.4 v -0.5 h -0.4 v -0.4 h -0.9 v -0.4 h -0.4 v -0.4 h -0.4 v -0.4 h -0.4 v -0.4 h -0.8 v -0.5 h -0.5 v -0.4 h -0.4 v -0.4 h -0.4 v -0.4 h -0.8 v -0.4 h -0.4 v -0.4 h -0.5 v -0.5 h -0.4 v -0.4 h -0.8 v -0.4 h -0.4 v -0.4 h -0.4 v -0.4 h -0.5 v -0.4 h -0.4 v -0.5 h -0.8 v -0.4 h -0.4 v -0.4 h -0.4 v -0.4 h -0.5 v -0.4 h -0.8 v -0.4 h -0.4 v -0.5 h -0.4 v -0.4 h -0.4 v -0.4 h -0.9 v -0.4 h -0.4 v -0.4 h -0.4 v -0.4 h -0.8 v -0.5 h -0.5 v -0.4 h -0.4 v -0.4 h -0.8 v -0.4 h -0.4 v -0.4 h -0.4 v -0.4 h -0.5 v -0.5 h -0.8 v -0.4 h -0.4 v -0.4 h -0.4 v -0.4 h -0.9 v -0.4 h -0.4 v -0.4 h -0.4 v -0.5 h -0.8 v -0.4 h -0.4 v -0.4 h -0.5 v -0.4 h -0.4 v -0.4 h -0.8 v -0.4 h -0.4 v -0.5 h -0.4 v -0.4 h -0.9 v -0.4 h -0.4 v -0.4 h -0.4 v -0.4 h -0.8 v -0.4 h -0.5 v -0.5 h -0.4 v -0.4 h -0.8 v -0.4 h -0.4 v -0.4 h -0.4 v -0.4 h -0.5 v -0.4 h -0.8 v -0.5 h -0.4 v -0.4 h -0.4 v -0.4 h -0.9 v -0.4 h -0.4 v -0.4 h -0.4 v -0.4 h -0.8 v -0.5 h -0.4 v -0.4 h -0.5 v -0.4 h -0.8 v -0.4 h -0.4 v -0.4 h -0.8 v -0.4 h -0.4 v -0.5 h -0.5 v -0.4 h -0.8 v -0.4 h -0.4 v -0.4 h -0.4 v -0.4 h -0.9 v -0.4 h -0.4 v -0.5 h -0.8 v -0.4 h -0.4 v -0.4 h -0.4 v -0.4 h -0.9 v -0.4 h -0.4 v -0.4 h -0.4 v -0.5 h -0.8 v -0.4 h -0.5 v -0.4 h -0.4 v -0.4 h -0.8 v -0.4 h -0.4 v -0.4 h -0.9 v -0.5 h -0.4 v -0.4 h -0.4 v -0.4 h -0.8 v -0.4 h -0.4 v -0.4 h -0.5 v -0.4 h -0.8 v -0.5 h -0.4 v -0.4 h -0.8 v -0.4 h -0.5 v -0.4 h -0.4 v -0.4 h -0.8 v -0.4 h -0.4 v -0.4 h -0.9 v -0.5 h -0.4 v -0.4 h -0.4 v -0.4 h -0.8 v -0.4 h -0.4 v -0.4 h -0.9 v -0.4 h -0.4 v -0.5 h -0.8 v -0.4 h -0.4 v -0.4 h -0.9 v -0.4 h -0.4 v -0.4 h -0.4 v -0.4 h -0.8 v -0.5 h -0.5 v -0.4 h -0.8 v -0.4 h -0.4 v -0.4 h -0.8 v -0.4 h -0.5 v -0.4 h -0.8 v -0.5 h -0.4 v -0.4 h -0.4 v -0.4 h -0.9 v -0.4 h -0.4 v -0.4 h -0.8 v -0.4 h -0.4 v -0.5 h -0.9 v -0.4 h -0.4 v -0.4 h -0.8 v -0.4 h -0.4 v -0.4 h -0.4 v -0.4 h -0.9 v -0.5 h -0.4 v -0.4 h -0.8 v -0.4 h -0.4 v -0.4 h -0.9 v -0.4 h -0.4 v -0.4 h -0.8 v -0.5 h -0.4 v -0.4 h -0.9 v -0.4 h -0.4 v -0.4 h -0.8 v -0.4 h -0.4 v -0.4 h -0.9 v -0.5 h -0.4 v -0.4 h -0.8 v -0.4 h -0.4 v -0.4 h -0.9 v -0.4 h -0.4 v -0.4 h -0.8 v -0.5 h -0.4 v -0.4 h -0.9 v -0.4 h -0.4 v -0.4 h -0.8 v -0.4 h -0.4 v -0.4 h -0.9 v -0.5 h -0.8 v -0.4 h -0.4 v -0.4 h -0.9 v -0.4 h -0.4 v -0.4 h -0.8 v -0.4 h -0.4 v -0.5 h -0.9 v -0.4 h -0.4 v -0.4 h -0.8 v -0.4 h -0.4 v -0.4 h -0.9 v -0.4 h -0.4 v -0.5 h -0.8 v -0.4 h -0.4 v -0.4 h -0.8 v -0.4 h -0.5 v -0.4 h -0.8 v -0.4 h -0.8 v -0.5 h -0.4 v -0.4 h -0.9 v -0.4 h -0.4 v -0.4 h -0.8 v -0.4 h -0.9 v -0.4 h -0.4 v -0.5 h -0.8 v -0.4 h -0.4 v -0.4 h -0.9 v -0.4 h -0.8 v -0.4 h -0.4 v -0.4 h -0.8 v -0.5 h -0.5 v -0.4 h -0.8 v -0.4 h -0.8 v -0.4 h -0.4 v -0.4 h -0.9 v -0.4 h -0.4 v -0.5 h -0.8 v -0.4 h -0.9 v -0.4 h -0.4 v -0.4 h -0.8 v -0.4 h -0.4 v -0.4 h -0.9 v -0.5 h -0.8 v -0.4 h -0.4 v -0.4 h -0.8 v -0.4 h -0.5 v -0.4 h -0.8 v -0.4 h -0.8 v -0.5 h -0.4 v -0.4 h -0.9 v -0.4 h -0.8 v -0.4 h -0.4 v -0.4 h -0.9 v -0.4 h -0.8 v -0.5 h -0.8 v -0.4 h -0.4 v -0.4 h -0.9 v -0.4 h -0.8 v -0.4 h -0.4 v -0.4 h -0.9 v -0.5 h -0.8 v -0.4 h -0.4 v -0.4 h -0.8 v -0.4 h -0.9 v -0.4 h -0.4 v -0.4 h -0.8 v -0.5 h -0.9 v -0.4 h -0.4 v -0.4 h -0.8 v -0.4 h -0.8 v -0.4 h -0.9 v -0.4 h -0.4 v -0.5 h -0.8 v -0.4 h -0.9 v -0.4 h -0.4 v -0.4 h -0.8 v -0.4 h -0.8 v -0.4 h -0.5 v -0.5 h -0.8 v -0.4 h -0.8 v -0.4 h -0.9 v -0.4 h -0.4 v -0.4 h -0.8 v -0.4 h -0.8 v -0.5 h -0.9 v -0.4 h -0.8 v -0.4 h -0.4 v -0.4 h -0.9 v -0.4 h -0.8 v -0.4 h -0.8 v -0.4 h -0.4 v -0.5 h -0.9 v -0.4 h -0.8 v -0.4 h -0.8 v -0.4 h -0.9 v -0.4 h -0.4 v -0.4 h -0.8 v -0.5 h -0.8 v -0.4 h -0.9 v -0.4 h -0.8 v -0.4 h -0.4 v -0.4 h -0.9 v -0.4 h -0.8 v -0.5 h -0.8 v -0.4 h -0.9 v -0.4 h -0.4 v -0.4 h -0.8 v -0.4 h -0.8 v -0.4 h -0.9 v -0.5 h -0.4 v -0.4 h -0.8 v -0.4 h -0.9 v -0.4 h -0.8 v -0.4 h -0.8 v -0.4 h -0.9 v -0.5 h -0.8 v -0.4 h -0.8 v -0.4 h -0.9 v -0.4 h -0.4 v -0.4 h -0.8 v -0.4 h -0.8 v -0.5 h -0.9 v -0.4 h -0.8 v -0.4 h -0.8 v -0.4 h -0.9 v -0.4 h -0.8 v -0.4 h -0.8 v -0.5 h -0.5 v -0.4 h -0.8 v -0.4 h -0.8 v -0.4 h -0.9 v -0.4 h -0.8 v -0.4 h -0.8 v -0.5 h -0.9 v -0.4 h -0.8 v -0.4 h -0.8 v -0.4 h -0.9 v -0.4 h -0.4 v -0.4 h -0.8 v -0.5 h -0.8 v -0.4 h -0.9 v -0.4 h -0.8 v -0.4 h -0.8 v -0.4 h -0.9 v -0.4 h -0.8 v -0.5 h -0.8 v -0.4 h -0.9 v -0.4 h -0.8 v -0.4 h -0.8 v -0.4 h -0.9 v -0.4 h -0.8 v -0.5 h -0.8 v -0.4 h -0.9 v -0.4 h -0.8 v -0.4 h -0.8 v -0.4 h -0.9 v -0.4 h -0.8 v -0.5 h -0.8 v -0.4 h -0.9 v -0.4 h -0.8 v -0.4 h -0.8 v -0.4 h -0.9 v -0.4 h -0.8 v -0.5 h -0.8 v -0.4 h -0.9 v -0.4 h -0.8 v -0.4 h -1.3 v -0.4 h -0.8 v -0.4 h -0.8 v -0.5 h -0.9 v -0.4 h -0.8 v -0.4 h -0.8 v -0.4 h -0.8 v -0.4 h -0.9 v -0.4 h -0.8 v -0.5 h -1.3 v -0.4 h -0.8 v -0.4 h -0.8 v -0.4 h -0.9 v -0.4 h -0.8 v -0.4 h -0.8 v -0.5 h -0.9 v -0.4 h -1.2 v -0.4 h -0.8 v -0.4 h -0.9 v -0.4 h -0.8 v -0.4 h -0.8 v -0.5 h -0.9 v -0.4 h -0.8 v -0.4 h -1.3 v -0.4 h -0.8 v -0.4 h -0.8 v -0.4 h -0.9 v -0.5 h -0.8 v -0.4 h -0.8 v -0.4 h -1.3 v -0.4 h -0.8 v -0.4 h -0.8 v -0.4 h -0.9 v -0.5 h -1.2 v -0.4 h -0.9 v -0.4 h -0.8 v -0.4 h -1.2 v -0.4 h -0.9 v -0.4 h -0.8 v -0.5 h -0.8 v -0.4 h -1.3 v -0.4 h -0.8 v -0.4 h -0.9 v -0.4 h -1.2 v -0.4 h -0.8 v -0.5 h -0.9 v -0.4 h -0.8 v -0.4 h -1.3 v -0.4 h -0.8 v -0.4 h -0.8 v -0.4 h -1.3 v -0.5 h -0.8 v -0.4 h -0.8 v -0.4 h -0.9 v -0.4 h -1.2 v -0.4 h -0.9 v -0.4 h -1.2 v -0.5 h -0.8 v -0.4 h -0.9 v -0.4 h -1.2 v -0.4 h -0.9 v -0.4 h -1.2 v -0.4 h -0.8 v -0.4 h -1.3 v -0.5 h -0.8 v -0.4 h -1.3 v -0.4 h -0.8 v -0.4 h -0.8 v -0.4 h -1.3 v -0.4 h -0.8 v -0.5 h -1.3 v -0.4 h -0.8 v -0.4 h -1.2 v -0.4 h -0.9 v -0.4 h -1.2 v -0.4 h -0.9 v -0.5 h -1.2 v -0.4 h -0.8 v -0.4 h -0.9 v -0.4 h -1.2 v -0.4 h -1.3 v -0.4 h -0.8 v -0.5 h -1.3 v -0.4 h -1.2 v -0.4 h -0.8 v -0.4 h -1.3 v -0.4 h -0.8 v -0.4 h -1.3 v -0.5 h -1.2 v -0.4 h -0.9 v -0.4 h -1.2 v -0.4 h -1.3 v -0.4 h -0.8 v -0.4 h -1.2 v -0.5 h -1.3 v -0.4 h -0.8 v -0.4 h -1.3 v -0.4 h -0.8 v -0.4 h -1.3 v -0.4 h -1.2 v -0.5 h -0.8 v -0.4 h -1.3 v -0.4 h -1.2 v -0.4 h -1.3 v -0.4 h -1.2 v -0.4 h -0.9 v -0.5 h -1.2 v -0.4 h -1.3 v -0.4 h -1.2 v -0.4 h -1.3 v -0.4 h -1.2 v -0.4 h -0.9 v -0.5 h -1.2 v -0.4 h -1.3 v -0.4 h -1.2 v -0.4 h -1.3 v -0.4 h -1.2 v -0.4 h -0.8 v -0.5 h -1.3 v -0.4 h -1.2 v -0.4 h -1.3 v -0.4 h -1.2 v -0.4 h -1.3 v -0.4 h -1.2 v -0.5 h -1.3 v -0.4 h -1.2 v -0.4 h -1.3 v -0.4 h -1.2 v -0.4 h -1.3 v -0.4 h -1.2 v -0.5 h -1.3 v -0.4 h -1.2 v -0.4 h -1.3 v -0.4 h -1.6 v -0.4 h -1.3 v -0.4 h -1.2 v -0.5 h -1.3 v -0.4 h -1.2 v -0.4 h -1.3 v -0.4 h -1.2 v -0.4 h -1.3 v -0.4 h -1.2 v -0.5 h -1.3 v -0.4 h -1.7 v -0.4 h -1.2 v -0.4 h -1.3 v -0.4 h -1.6 v -0.4 h -1.3 v -0.5 h -1.6 v -0.4 h -1.3 v -0.4 h -1.2 v -0.4 h -1.7 v -0.4 h -1.3 v -0.4 h -1.2 v -0.5 h -1.7 v -0.4 h -1.2 v -0.4 h -1.3 v -0.4 h -1.6 v -0.4 h -1.3 v -0.4 h -1.2 v -0.5 h -1.7 v -0.4 h -1.7 v -0.4 h -1.2 v -0.4 h -1.7 v -0.4 h -1.6 v -0.4 h -1.3 v -0.5 h -1.7 v -0.4 h -1.6 v -0.4 h -1.3 v -0.4 h -1.6 v -0.4 h -1.7 v -0.4 h -1.3 v -0.5 h -1.6 v -0.4 h -1.7 v -0.4 h -1.7 v -0.4 h -1.2 v -0.4 h -1.7 v -0.4 h -1.6 v -0.5 h -1.7 v -0.4 h -1.7 v -0.4 h -1.6 v -0.4 h -1.7 v -0.4 h -1.7 v -0.4 h -1.6 v -0.5 h -1.7 v -0.4 h -1.7 v -0.4 h -2.1 v -0.4 h -1.6 v -0.4 h -1.7 v -0.4 h -1.7 v -0.5 h -1.6 v -0.4 h -1.7 v -0.4 h -1.7 v -0.4 h -2 v -0.4 h -1.7 v -0.4 h -2.1 v -0.5 h -1.7 v -0.4 h -2 v -0.4 h -2.1 v -0.4 h -1.7 v -0.4 h -2.1 v -0.4 h -1.6 v -0.5 h -2.1 v -0.4 h -2.1 v -0.4 h -1.7 v -0.4 h -2 v -0.4 h -1.7 v -0.4 h -2.5 v -0.4 h -2.1 v -0.5 h -2.1 v -0.4 h -2.1 v -0.4 h -2 v -0.4 h -2.5 v -0.4 h -2.1 v -0.4 h -2.1 v -0.5 h -2.1 v -0.4 h -2.5 v -0.4 h -2.1 v -0.4 h -2.1 v -0.4 h -2.5 v -0.4 h -2.5 v -0.5 h -2.5 v -0.4 h -2.5 v -0.4 h -2.5 v -0.4 h -2.5 v -0.4 h -2.5 v -0.4 h -2.4 v -0.5 h -2.5 v -0.4 h -2.5 v -0.4 h -2.5 v -0.4 h -3 v -0.4 h -2.9 v -0.4 h -3.3 v -0.5 h -2.9 v -0.4 h -2.9 v -0.4 h -3 v -0.4 h -2.9 v -0.4 h -2.9 v -0.4 h -2.9 v -0.5 h -3.8 v -0.4 h -3.7 v -0.4 h -3.3 v -0.4 h -3.8 v -0.4 h -3.7 v -0.4 h -3.8 v -0.5 h -3.3 v -0.4 h -4.2 v -0.4 h -4.6 v -0.4 h -5 v -0.4 h -4.5 v -0.4 h -4.6 v -0.5 h -4.6 v -0.4 h -5.8 v -0.4 h -6.7 v -0.4 h -6.3 v -0.4 h -6.6 v -0.4 h -7.9 v -0.5 h -10.9 v -0.4 h -11.2 v -0.4 h -20.8 v -0.4" /></g></g></g></g><g
         id="g218"><g
           clip-path="url(#clipPath224)"
           id="g220"><g
             clip-path="url(#clipPath230)"
             id="g226"><path
               id="path238"
               style="fill:url(#linearGradient236);fill-opacity:1;fill-rule:nonzero;stroke:none"
               d="m 0,0 v 2571 h 107 v -1 h 35 v -1 h 27 v -1 h 25 v -1 h 16 v -1 h 16 v -1 h 16 v -1 h 15 v -1 h 13 v -1 h 11 v -1 h 12 v -1 h 11 v -1 h 11 v -1 h 11 v -1 h 10 v -1 h 9 v -1 h 9 v -1 h 9 v -1 h 8 v -1 h 9 v -1 h 9 v -1 h 9 v -1 h 7 v -1 h 7 v -1 h 7 v -1 h 7 v -1 h 8 v -1 h 7 v -1 h 7 v -1 h 7 v -1 h 7 v -1 h 7 v -1 h 6 v -1 h 6 v -1 h 6 v -1 h 6 v -1 h 6 v -1 h 6 v -1 h 6 v -1 h 6 v -1 h 6 v -1 h 6 v -1 h 6 v -1 h 6 v -1 h 5 v -1 h 5 v -1 h 5 v -1 h 5 v -1 h 6 v -1 h 5 v -1 h 5 v -1 h 5 v -1 h 6 v -1 h 5 v -1 h 5 v -1 h 5 v -1 h 5 v -1 h 4 v -1 h 5 v -1 h 4 v -1 h 5 v -1 h 4 v -1 h 5 v -1 h 5 v -1 h 4 v -1 h 5 v -1 h 4 v -1 h 5 v -1 h 5 v -1 h 4 v -1 h 4 v -1 h 4 v -1 h 5 v -1 h 4 v -1 h 4 v -1 h 4 v -1 h 4 v -1 h 4 v -1 h 4 v -1 h 4 v -1 h 4 v -1 h 4 v -1 h 5 v -1 h 4 v -1 h 4 v -1 h 4 v -1 h 3 v -1 h 4 v -1 h 4 v -1 h 4 v -1 h 3 v -1 h 4 v -1 h 4 v -1 h 3 v -1 h 4 v -1 h 4 v -1 h 3 v -1 h 4 v -1 h 4 v -1 h 4 v -1 h 3 v -1 h 4 v -1 h 4 v -1 h 3 v -1 h 3 v -1 h 4 v -1 h 3 v -1 h 4 v -1 h 3 v -1 h 3 v -1 h 4 v -1 h 3 v -1 h 3 v -1 h 4 v -1 h 3 v -1 h 3 v -1 h 4 v -1 h 3 v -1 h 4 v -1 h 3 v -1 h 3 v -1 h 4 v -1 h 3 v -1 h 3 v -1 h 3 v -1 h 3 v -1 h 3 v -1 h 3 v -1 h 3 v -1 h 3 v -1 h 4 v -1 h 3 v -1 h 3 v -1 h 3 v -1 h 3 v -1 h 3 v -1 h 3 v -1 h 3 v -1 h 3 v -1 h 3 v -1 h 3 v -1 h 3 v -1 h 3 v -1 h 3 v -1 h 3 v -1 h 3 v -1 h 3 v -1 h 3 v -1 h 3 v -1 h 2 v -1 h 3 v -1 h 3 v -1 h 3 v -1 h 3 v -1 h 3 v -1 h 2 v -1 h 3 v -1 h 3 v -1 h 3 v -1 h 3 v -1 h 3 v -1 h 2 v -1 h 3 v -1 h 3 v -1 h 3 v -1 h 3 v -1 h 2 v -1 h 3 v -1 h 3 v -1 h 2 v -1 h 3 v -1 h 2 v -1 h 3 v -1 h 3 v -1 h 2 v -1 h 3 v -1 h 3 v -1 h 2 v -1 h 3 v -1 h 3 v -1 h 2 v -1 h 3 v -1 h 2 v -1 h 3 v -1 h 3 v -1 h 2 v -1 h 3 v -1 h 3 v -1 h 2 v -1 h 3 v -1 h 2 v -1 h 3 v -1 h 2 v -1 h 2 v -1 h 3 v -1 h 2 v -1 h 3 v -1 h 2 v -1 h 3 v -1 h 2 v -1 h 3 v -1 h 2 v -1 h 2 v -1 h 3 v -1 h 2 v -1 h 3 v -1 h 2 v -1 h 3 v -1 h 2 v -1 h 3 v -1 h 2 v -1 h 2 v -1 h 3 v -1 h 2 v -1 h 3 v -1 h 2 v -1 h 2 v -1 h 2 v -1 h 3 v -1 h 2 v -1 h 2 v -1 h 3 v -1 h 2 v -1 h 2 v -1 h 3 v -1 h 2 v -1 h 2 v -1 h 2 v -1 h 3 v -1 h 2 v -1 h 2 v -1 h 3 v -1 h 2 v -1 h 2 v -1 h 2 v -1 h 3 v -1 h 2 v -1 h 2 v -1 h 3 v -1 h 2 v -1 h 2 v -1 h 2 v -1 h 2 v -1 h 2 v -1 h 3 v -1 h 2 v -1 h 2 v -1 h 2 v -1 h 2 v -1 h 2 v -1 h 2 v -1 h 3 v -1 h 2 v -1 h 2 v -1 h 2 v -1 h 2 v -1 h 2 v -1 h 2 v -1 h 3 v -1 h 2 v -1 h 2 v -1 h 2 v -1 h 2 v -1 h 2 v -1 h 2 v -1 h 3 v -1 h 2 v -1 h 2 v -1 h 2 v -1 h 2 v -1 h 2 v -1 h 2 v -1 h 2 v -1 h 2 v -1 h 2 v -1 h 2 v -1 h 2 v -1 h 2 v -1 h 2 v -1 h 2 v -1 h 2 v -1 h 2 v -1 h 2 v -1 h 2 v -1 h 2 v -1 h 2 v -1 h 2 v -1 h 2 v -1 h 2 v -1 h 2 v -1 h 2 v -1 h 2 v -1 h 2 v -1 h 2 v -1 h 2 v -1 h 2 v -1 h 2 v -1 h 2 v -1 h 2 v -1 h 2 v -1 h 2 v -1 h 2 v -1 h 2 v -1 h 2 v -1 h 1 v -1 h 2 v -1 h 2 v -1 h 2 v -1 h 2 v -1 h 2 v -1 h 2 v -1 h 2 v -1 h 2 v -1 h 2 v -1 h 1 v -1 h 2 v -1 h 2 v -1 h 2 v -1 h 2 v -1 h 2 v -1 h 2 v -1 h 2 v -1 h 2 v -1 h 1 v -1 h 2 v -1 h 2 v -1 h 2 v -1 h 2 v -1 h 2 v -1 h 2 v -1 h 1 v -1 h 2 v -1 h 2 v -1 h 2 v -1 h 2 v -1 h 1 v -1 h 2 v -1 h 2 v -1 h 2 v -1 h 2 v -1 h 1 v -1 h 2 v -1 h 2 v -1 h 2 v -1 h 2 v -1 h 1 v -1 h 2 v -1 h 2 v -1 h 2 v -1 h 1 v -1 h 2 v -1 h 2 v -1 h 2 v -1 h 2 v -1 h 1 v -1 h 2 v -1 h 2 v -1 h 2 v -1 h 2 v -1 h 1 v -1 h 2 v -1 h 2 v -1 h 1 v -1 h 2 v -1 h 2 v -1 h 2 v -1 h 1 v -1 h 2 v -1 h 2 v -1 h 1 v -1 h 2 v -1 h 2 v -1 h 1 v -1 h 2 v -1 h 2 v -1 h 1 v -1 h 2 v -1 h 2 v -1 h 2 v -1 h 1 v -1 h 2 v -1 h 2 v -1 h 1 v -1 h 2 v -1 h 2 v -1 h 1 v -1 h 2 v -1 h 2 v -1 h 1 v -1 h 2 v -1 h 2 v -1 h 2 v -1 h 1 v -1 h 2 v -1 h 2 v -1 h 1 v -1 h 2 v -1 h 1 v -1 h 2 v -1 h 2 v -1 h 1 v -1 h 2 v -1 h 1 v -1 h 2 v -1 h 2 v -1 h 1 v -1 h 2 v -1 h 1 v -1 h 2 v -1 h 2 v -1 h 1 v -1 h 2 v -1 h 1 v -1 h 2 v -1 h 2 v -1 h 1 v -1 h 2 v -1 h 1 v -1 h 2 v -1 h 2 v -1 h 1 v -1 h 2 v -1 h 1 v -1 h 2 v -1 h 2 v -1 h 1 v -1 h 2 v -1 h 1 v -1 h 2 v -1 h 1 v -1 h 2 v -1 h 1 v -1 h 2 v -1 h 2 v -1 h 1 v -1 h 2 v -1 h 1 v -1 h 2 v -1 h 1 v -1 h 2 v -1 h 1 v -1 h 2 v -1 h 1 v -1 h 2 v -1 h 1 v -1 h 2 v -1 h 1 v -1 h 2 v -1 h 1 v -1 h 2 v -1 h 1 v -1 h 2 v -1 h 1 v -1 h 2 v -1 h 1 v -1 h 2 v -1 h 1 v -1 h 2 v -1 h 2 v -1 h 1 v -1 h 2 v -1 h 1 v -1 h 2 v -1 h 1 v -1 h 2 v -1 h 1 v -1 h 1 v -1 h 2 v -1 h 1 v -1 h 2 v -1 h 1 v -1 h 2 v -1 h 1 v -1 h 2 v -1 h 1 v -1 h 1 v -1 h 2 v -1 h 1 v -1 h 2 v -1 h 1 v -1 h 2 v -1 h 1 v -1 h 2 v -1 h 1 v -1 h 1 v -1 h 2 v -1 h 1 v -1 h 2 v -1 h 1 v -1 h 2 v -1 h 1 v -1 h 2 v -1 h 1 v -1 h 1 v -1 h 2 v -1 h 1 v -1 h 2 v -1 h 1 v -1 h 2 v -1 h 1 v -1 h 2 v -1 h 1 v -1 h 1 v -1 h 2 v -1 h 1 v -1 h 1 v -1 h 2 v -1 h 1 v -1 h 2 v -1 h 1 v -1 h 1 v -1 h 2 v -1 h 1 v -1 h 1 v -1 h 2 v -1 h 1 v -1 h 2 v -1 h 1 v -1 h 1 v -1 h 2 v -1 h 1 v -1 h 1 v -1 h 2 v -1 h 1 v -1 h 1 v -1 h 2 v -1 h 1 v -1 h 2 v -1 h 1 v -1 h 1 v -1 h 2 v -1 h 1 v -1 h 1 v -1 h 2 v -1 h 1 v -1 h 2 v -1 h 1 v -1 h 1 v -1 h 2 v -1 h 1 v -1 h 1 v -1 h 2 v -1 h 1 v -1 h 1 v -1 h 2 v -1 h 1 v -1 h 1 v -1 h 2 v -1 h 1 v -1 h 1 v -1 h 1 v -1 h 2 v -1 h 1 v -1 h 1 v -1 h 2 v -1 h 1 v -1 h 1 v -1 h 2 v -1 h 1 v -1 h 1 v -1 h 1 v -1 h 2 v -1 h 1 v -1 h 1 v -1 h 2 v -1 h 1 v -1 h 1 v -1 h 2 v -1 h 1 v -1 h 1 v -1 h 2 v -1 h 1 v -1 h 1 v -1 h 1 v -1 h 2 v -1 h 1 v -1 h 1 v -1 h 2 v -1 h 1 v -1 h 1 v -1 h 1 v -1 h 2 v -1 h 1 v -1 h 1 v -1 h 1 v -1 h 2 v -1 h 1 v -1 h 1 v -1 h 1 v -1 h 2 v -1 h 1 v -1 h 1 v -1 h 1 v -1 h 2 v -1 h 1 v -1 h 1 v -1 h 1 v -1 h 2 v -1 h 1 v -1 h 1 v -1 h 1 v -1 h 2 v -1 h 1 v -1 h 1 v -1 h 1 v -1 h 2 v -1 h 1 v -1 h 1 v -1 h 1 v -1 h 1 v -1 h 2 v -1 h 1 v -1 h 1 v -1 h 1 v -1 h 2 v -1 h 1 v -1 h 1 v -1 h 1 v -1 h 2 v -1 h 1 v -1 h 1 v -1 h 1 v -1 h 2 v -1 h 1 v -1 h 1 v -1 h 1 v -1 h 1 v -1 h 1 v -1 h 2 v -1 h 1 v -1 h 1 v -1 h 1 v -1 h 1 v -1 h 2 v -1 h 1 v -1 h 1 v -1 h 1 v -1 h 1 v -1 h 1 v -1 h 2 v -1 h 1 v -1 h 1 v -1 h 1 v -1 h 1 v -1 h 2 v -1 h 1 v -1 h 1 v -1 h 1 v -1 h 1 v -1 h 1 v -1 h 2 v -1 h 1 v -1 h 1 v -1 h 1 v -1 h 1 v -1 h 2 v -1 h 1 v -1 h 1 v -1 h 1 v -1 h 1 v -1 h 1 v -1 h 2 v -1 h 1 v -1 h 1 v -1 h 1 v -1 h 1 v -1 h 1 v -1 h 1 v -1 h 2 v -1 h 1 v -1 h 1 v -1 h 1 v -1 h 1 v -1 h 1 v -1 h 1 v -1 h 1 v -1 h 2 v -1 h 1 v -1 h 1 v -1 h 1 v -1 h 1 v -1 h 1 v -1 h 1 v -1 h 1 v -1 h 2 v -1 h 1 v -1 h 1 v -1 h 1 v -1 h 1 v -1 h 1 v -1 h 1 v -1 h 2 v -1 h 1 v -1 h 1 v -1 h 1 v -1 h 1 v -1 h 1 v -1 h 1 v -1 h 1 v -1 h 2 v -1 h 1 v -1 h 1 v -1 h 1 v -1 h 1 v -1 h 1 v -1 h 1 v -1 h 1 v -1 h 1 v -1 h 2 v -1 h 1 v -1 h 1 v -1 h 1 v -1 h 1 v -1 h 1 v -1 h 1 v -1 h 1 v -1 h 1 v -1 h 1 v -1 h 1 v -1 h 1 v -1 h 1 v -1 h 1 v -1 h 2 v -1 h 1 v -1 h 1 v -1 h 1 v -1 h 1 v -1 h 1 v -1 h 1 v -1 h 1 v -1 h 1 v -1 h 1 v -1 h 1 v -1 h 1 v -1 h 1 v -1 h 2 v -1 h 1 v -1 h 1 v -1 h 1 v -1 h 1 v -1 h 1 v -1 h 1 v -1 h 1 v -1 h 1 v -1 h 1 v -1 h 1 v -1 h 1 v -1 h 1 v -1 h 1 v -1 h 2 v -1 h 1 v -1 h 1 v -1 h 1 v -1 h 1 v -1 h 1 v -1 h 1 v -1 h 1 v -1 h 1 v -1 h 1 v -1 h 1 v -1 h 1 v -1 h 1 v -1 h 1 v -1 h 1 v -1 h 1 v -1 h 1 v -1 h 1 v -1 h 1 v -1 h 1 v -1 h 1 v -1 h 1 v -1 h 1 v -1 h 1 v -1 h 1 v -1 h 1 v -1 h 1 v -1 h 1 v -1 h 1 v -1 h 1 v -1 h 1 v -1 h 1 v -1 h 1 v -1 h 1 v -1 h 1 v -1 h 1 v -1 h 1 v -1 h 2 v -1 h 1 v -1 h 1 v -1 h 1 v -1 h 1 v -1 h 1 v -1 h 1 v -1 h 1 v -1 h 1 v -1 h 1 v -1 h 1 v -1 h 1 v -1 h 1 v -1 h 1 v -1 h 1 v -1 h 1 v -1 h 1 v -1 h 1 v -1 h 1 v -1 h 1 v -2 h 1 v -1 h 1 v -1 h 1 v -1 h 1 v -1 h 1 v -1 h 1 v -1 h 1 v -1 h 1 v -1 h 1 v -1 h 1 v -1 h 1 v -1 h 1 v -1 h 1 v -1 h 1 v -1 h 1 v -1 h 1 v -1 h 1 v -1 h 1 v -1 h 1 v -1 h 1 v -1 h 1 v -1 h 1 v -1 h 1 v -1 h 1 v -1 h 1 v -1 h 1 v -1 h 1 v -1 h 1 v -1 h 1 v -1 h 1 v -1 h 1 v -1 h 1 v -1 h 1 v -1 h 1 v -1 h 1 v -1 h 1 v -1 h 1 v -2 h 1 v -1 h 1 v -1 h 1 v -1 h 1 v -1 h 1 v -1 h 1 v -1 h 1 v -1 h 1 v -1 h 1 v -1 h 1 v -1 h 1 v -1 h 1 v -1 h 1 v -1 h 1 v -2 h 1 v -1 h 1 v -1 h 1 v -1 h 1 v -1 h 1 v -1 h 1 v -1 h 1 v -1 h 1 v -1 h 1 v -1 h 1 v -1 h 1 v -1 h 1 v -1 h 1 v -2 h 1 v -1 h 1 v -1 h 1 v -1 h 1 v -1 h 1 v -1 h 1 v -1 h 1 v -1 h 1 v -1 h 1 v -1 h 1 v -1 h 1 v -1 h 1 v -1 h 1 v -1 h 1 v -2 h 1 v -1 h 1 v -1 h 1 v -1 h 1 v -1 h 1 v -1 h 1 v -1 h 1 v -1 h 1 v -1 h 1 v -2 h 1 v -1 h 1 v -1 h 1 v -1 h 1 v -1 h 1 v -1 h 1 v -1 h 1 v -1 h 1 v -2 h 1 v -1 h 1 v -1 h 1 v -1 h 1 v -1 h 1 v -1 h 1 v -1 h 1 v -2 h 1 v -1 h 1 v -1 h 1 v -1 h 1 v -1 h 1 v -1 h 1 v -1 h 1 v -1 h 1 v -2 h 1 v -1 h 1 v -1 h 1 v -1 h 1 v -1 h 1 v -1 h 1 v -1 h 1 v -1 h 1 v -2 h 1 v -1 h 1 v -1 h 1 v -1 h 1 v -1 h 1 v -1 h 1 v -1 h 1 v -2 h 1 v -1 h 1 v -1 h 1 v -1 h 1 v -1 h 1 v -1 h 1 v -2 h 1 v -1 h 1 v -1 h 1 v -1 h 1 v -1 h 1 v -2 h 1 v -1 h 1 v -1 h 1 v -1 h 1 v -1 h 1 v -1 h 1 v -2 h 1 v -1 h 1 v -1 h 1 v -1 h 1 v -1 h 1 v -2 h 1 v -1 h 1 v -1 h 1 v -1 h 1 v -1 h 1 v -1 h 1 v -2 h 1 v -1 h 1 v -1 h 1 v -1 h 1 v -1 h 1 v -2 h 1 v -1 h 1 v -1 h 1 v -1 h 1 v -1 h 1 v -1 h 1 v -2 h 1 v -1 h 1 v -1 h 1 v -1 h 1 v -2 h 1 v -1 h 1 v -1 h 1 v -1 h 1 v -2 h 1 v -1 h 1 v -1 h 1 v -1 h 1 v -2 h 1 v -1 h 1 v -1 h 1 v -1 h 1 v -1 h 1 v -2 h 1 v -1 h 1 v -1 h 1 v -1 h 1 v -2 h 1 v -1 h 1 v -1 h 1 v -1 h 1 v -2 h 1 v -1 h 1 v -1 h 1 v -1 h 1 v -2 h 1 v -1 h 1 v -1 h 1 v -1 h 1 v -2 h 1 v -1 h 1 v -1 h 1 v -1 h 1 v -2 h 1 v -1 h 1 v -1 h 1 v -1 h 1 v -2 h 1 v -1 h 1 v -1 h 1 v -1 h 1 v -2 h 1 v -1 h 1 v -1 h 1 v -2 h 1 v -1 h 1 v -1 h 1 v -2 h 1 v -1 h 1 v -1 h 1 v -1 h 1 v -2 h 1 v -1 h 1 v -1 h 1 v -2 h 1 v -1 h 1 v -1 h 1 v -2 h 1 v -1 h 1 v -1 h 1 v -1 h 1 v -2 h 1 v -1 h 1 v -1 h 1 v -2 h 1 v -1 h 1 v -1 h 1 v -2 h 1 v -1 h 1 v -1 h 1 v -2 h 1 v -1 h 1 v -1 h 1 v -1 h 1 v -2 h 1 v -1 h 1 v -1 h 1 v -2 h 1 v -1 h 1 v -1 h 1 v -2 h 1 v -1 h 1 v -1 h 1 v -2 h 1 v -1 h 1 v -2 h 1 v -1 h 1 v -1 h 1 v -2 h 1 v -1 h 1 v -1 h 1 v -2 h 1 v -1 h 1 v -2 h 1 v -1 h 1 v -1 h 1 v -2 h 1 v -1 h 1 v -1 h 1 v -2 h 1 v -1 h 1 v -2 h 1 v -1 h 1 v -1 h 1 v -2 h 1 v -1 h 1 v -1 h 1 v -2 h 1 v -1 h 1 v -1 h 1 v -2 h 1 v -1 h 1 v -2 h 1 v -1 h 1 v -1 h 1 v -2 h 1 v -1 h 1 v -1 h 1 v -2 h 1 v -1 h 1 v -2 h 1 v -1 h 1 v -2 h 1 v -1 h 1 v -2 h 1 v -1 h 1 v -1 h 1 v -2 h 1 v -1 h 1 v -2 h 1 v -1 h 1 v -2 h 1 v -1 h 1 v -2 h 1 v -1 h 1 v -1 h 1 v -2 h 1 v -1 h 1 v -2 h 1 v -1 h 1 v -2 h 1 v -1 h 1 v -2 h 1 v -1 h 1 v -1 h 1 v -2 h 1 v -1 h 1 v -2 h 1 v -1 h 1 v -2 h 1 v -1 h 1 v -2 h 1 v -1 h 1 v -1 h 1 v -2 h 1 v -1 h 1 v -2 h 1 v -1 h 1 v -2 h 1 v -2 h 1 v -1 h 1 v -2 h 1 v -1 h 1 v -2 h 1 v -1 h 1 v -2 h 1 v -1 h 1 v -2 h 1 v -1 h 1 v -2 h 1 v -1 h 1 v -2 h 1 v -1 h 1 v -2 h 1 v -1 h 1 v -2 h 1 v -1 h 1 v -2 h 1 v -1 h 1 v -2 h 1 v -1 h 1 v -2 h 1 v -1 h 1 v -2 h 1 v -1 h 1 v -2 h 1 v -2 h 1 v -1 h 1 v -2 h 1 v -1 h 1 v -2 h 1 v -1 h 1 v -2 h 1 v -1 h 1 v -2 h 1 v -2 h 1 v -1 h 1 v -2 h 1 v -1 h 1 v -2 h 1 v -2 h 1 v -1 h 1 v -2 h 1 v -1 h 1 v -2 h 1 v -2 h 1 v -1 h 1 v -2 h 1 v -1 h 1 v -2 h 1 v -2 h 1 v -1 h 1 v -2 h 1 v -1 h 1 v -2 h 1 v -2 h 1 v -1 h 1 v -2 h 1 v -2 h 1 v -1 h 1 v -2 h 1 v -1 h 1 v -2 h 1 v -2 h 1 v -1 h 1 v -2 h 1 v -1 h 1 v -2 h 1 v -2 h 1 v -2 h 1 v -1 h 1 v -2 h 1 v -2 h 1 v -1 h 1 v -2 h 1 v -2 h 1 v -1 h 1 v -2 h 1 v -2 h 1 v -1 h 1 v -2 h 1 v -2 h 1 v -2 h 1 v -1 h 1 v -2 h 1 v -2 h 1 v -1 h 1 v -2 h 1 v -2 h 1 v -1 h 1 v -2 h 1 v -2 h 1 v -1 h 1 v -2 h 1 v -2 h 1 v -2 h 1 v -1 h 1 v -2 h 1 v -2 h 1 v -1 h 1 v -2 h 1 v -2 h 1 v -2 h 1 v -2 h 1 v -1 h 1 v -2 h 1 v -2 h 1 v -2 h 1 v -2 h 1 v -1 h 1 v -2 h 1 v -2 h 1 v -2 h 1 v -1 h 1 v -2 h 1 v -2 h 1 v -2 h 1 v -2 h 1 v -1 h 1 v -2 h 1 v -2 h 1 v -2 h 1 v -2 h 1 v -1 h 1 v -2 h 1 v -2 h 1 v -2 h 1 v -2 h 1 v -1 h 1 v -2 h 1 v -2 h 1 v -2 h 1 v -2 h 1 v -2 h 1 v -2 h 1 v -1 h 1 v -2 h 1 v -2 h 1 v -2 h 1 v -2 h 1 v -2 h 1 v -2 h 1 v -2 h 1 v -2 h 1 v -1 h 1 v -2 h 1 v -2 h 1 v -2 h 1 v -2 h 1 v -2 h 1 v -2 h 1 v -2 h 1 v -2 h 1 v -2 h 1 v -1 h 1 v -2 h 1 v -2 h 1 v -2 h 1 v -2 h 1 v -2 h 1 v -2 h 1 v -2 h 1 v -2 h 1 v -2 h 1 v -2 h 1 v -2 h 1 v -2 h 1 v -2 h 1 v -2 h 1 v -2 h 1 v -2 h 1 v -2 h 1 v -2 h 1 v -2 h 1 v -2 h 1 v -2 h 1 v -2 h 1 v -2 h 1 v -2 h 1 v -2 h 1 v -2 h 1 v -2 h 1 v -2 h 1 v -2 h 1 v -2 h 1 v -2 h 1 v -2 h 1 v -2 h 1 v -2 h 1 v -2 h 1 v -2 h 1 v -2 h 1 v -2 h 1 v -3 h 1 v -2 h 1 v -2 h 1 v -2 h 1 v -2 h 1 v -2 h 1 v -2 h 1 v -3 h 1 v -2 h 1 v -2 h 1 v -2 h 1 v -2 h 1 v -2 h 1 v -2 h 1 v -3 h 1 v -2 h 1 v -2 h 1 v -2 h 1 v -2 h 1 v -2 h 1 v -2 h 1 v -3 h 1 v -2 h 1 v -2 h 1 v -2 h 1 v -2 h 1 v -3 h 1 v -2 h 1 v -2 h 1 v -2 h 1 v -3 h 1 v -2 h 1 v -2 h 1 v -3 h 1 v -2 h 1 v -2 h 1 v -2 h 1 v -3 h 1 v -2 h 1 v -2 h 1 v -3 h 1 v -2 h 1 v -2 h 1 v -2 h 1 v -3 h 1 v -2 h 1 v -2 h 1 v -3 h 1 v -2 h 1 v -2 h 1 v -2 h 1 v -3 h 1 v -2 h 1 v -3 h 1 v -2 h 1 v -2 h 1 v -3 h 1 v -2 h 1 v -3 h 1 v -2 h 1 v -3 h 1 v -2 h 1 v -3 h 1 v -2 h 1 v -2 h 1 v -3 h 1 v -2 h 1 v -3 h 1 v -2 h 1 v -3 h 1 v -2 h 1 v -3 h 1 v -2 h 1 v -3 h 1 v -2 h 1 v -2 h 1 v -3 h 1 v -2 h 1 v -3 h 1 v -3 h 1 v -2 h 1 v -3 h 1 v -3 h 1 v -2 h 1 v -3 h 1 v -3 h 1 v -2 h 1 v -3 h 1 v -2 h 1 v -3 h 1 v -3 h 1 v -2 h 1 v -3 h 1 v -3 h 1 v -2 h 1 v -3 h 1 v -2 h 1 v -3 h 1 v -3 h 1 v -2 h 1 v -3 h 1 v -3 h 1 v -3 h 1 v -3 h 1 v -2 h 1 v -3 h 1 v -3 h 1 v -3 h 1 v -3 h 1 v -3 h 1 v -2 h 1 v -3 h 1 v -3 h 1 v -3 h 1 v -3 h 1 v -3 h 1 v -2 h 1 v -3 h 1 v -3 h 1 v -3 h 1 v -3 h 1 v -3 h 1 v -3 h 1 v -3 h 1 v -3 h 1 v -3 h 1 v -3 h 1 v -3 h 1 v -3 h 1 v -3 h 1 v -3 h 1 v -3 h 1 v -3 h 1 v -3 h 1 v -4 h 1 v -3 h 1 v -3 h 1 v -3 h 1 v -3 h 1 v -3 h 1 v -3 h 1 v -3 h 1 v -3 h 1 v -3 h 1 v -4 h 1 v -3 h 1 v -4 h 1 v -3 h 1 v -3 h 1 v -4 h 1 v -3 h 1 v -3 h 1 v -4 h 1 v -3 h 1 v -3 h 1 v -4 h 1 v -3 h 1 v -3 h 1 v -4 h 1 v -3 h 1 v -4 h 1 v -3 h 1 v -3 h 1 v -4 h 1 v -4 h 1 v -4 h 1 v -3 h 1 v -4 h 1 v -4 h 1 v -3 h 1 v -4 h 1 v -4 h 1 v -3 h 1 v -4 h 1 v -4 h 1 v -3 h 1 v -4 h 1 v -4 h 1 v -4 h 1 v -3 h 1 v -4 h 1 v -4 h 1 v -5 h 1 v -4 h 1 v -4 h 1 v -4 h 1 v -4 h 1 v -4 h 1 v -4 h 1 v -4 h 1 v -4 h 1 v -4 h 1 v -5 h 1 v -4 h 1 v -4 h 1 v -4 h 1 v -4 h 1 v -5 h 1 v -5 h 1 v -4 h 1 v -5 h 1 v -4 h 1 v -5 h 1 v -5 h 1 v -4 h 1 v -5 h 1 v -4 h 1 v -5 h 1 v -5 h 1 v -4 h 1 v -5 h 1 v -5 h 1 v -6 h 1 v -5 h 1 v -5 h 1 v -5 h 1 v -5 h 1 v -6 h 1 v -5 h 1 v -5 h 1 v -5 h 1 v -6 h 1 v -5 h 1 v -6 h 1 v -6 h 1 v -6 h 1 v -6 h 1 v -6 h 1 v -6 h 1 v -6 h 1 v -6 h 1 v -6 h 1 v -6 h 1 v -6 h 1 v -7 h 1 v -7 h 1 v -7 h 1 v -7 h 1 v -7 h 1 v -8 h 1 v -7 h 1 v -7 h 1 v -7 h 1 v -8 h 1 v -8 h 1 v -9 h 1 v -9 h 1 v -9 h 1 v -8 h 1 v -9 h 1 v -9 h 1 v -10 h 1 v -11 h 1 v -11 h 1 V 93 h 1 V 81 h 1 V 70 h 1 V 57 h 1 V 41 h 1 V 26 h 1 V 10 h 1 V 0" /></g></g></g><g
         id="g240"><g
           clip-path="url(#clipPath246)"
           id="g242"><g
             clip-path="url(#clipPath252)"
             id="g248"><g
               transform="scale(3.06748)"
               id="g254"><path
                 id="path262"
                 style="fill:url(#linearGradient260);fill-opacity:1;fill-rule:nonzero;stroke:none"
                 d="m 16175.5,7142.99 v 0.32 h -9.8 v 0.33 h -5.9 v 0.32 h -4.2 v 0.33 h -4.3 v 0.33 h -4.2 v 0.32 h -4.2 v 0.33 h -2.6 v 0.32 h -2.6 v 0.33 h -2.7 v 0.33 h -2.6 v 0.32 h -2.6 v 0.33 h -2.6 v 0.32 h -2.3 v 0.33 h -2.2 v 0.33 h -2 v 0.32 h -2 v 0.33 h -1.6 v 0.32 h -1.9 v 0.33 h -1.7 v 0.33 h -1.9 v 0.32 h -2 v 0.33 h -1.6 v 0.32 h -2 v 0.33 h -1.6 v 0.33 h -1.6 v 0.32 h -1.3 v 0.33 h -1.7 v 0.32 h -1.3 v 0.33 h -1.3 v 0.33 h -1.6 v 0.32 h -1.3 v 0.33 h -1.3 v 0.32 h -1.6 v 0.33 h -1.3 v 0.33 h -1.3 v 0.32 h -1.7 v 0.33 h -1.3 v 0.32 h -1.3 v 0.33 h -1 v 0.33 h -1.3 v 0.32 h -0.9 v 0.33 h -1.3 v 0.32 h -1 v 0.33 h -1.3 v 0.33 h -1 v 0.32 h -1.3 v 0.33 h -1.3 v 0.32 h -1 v 0.33 h -1.3 v 0.33 h -1 v 0.32 h -1.3 v 0.33 h -1 v 0.32 h -1.3 v 0.33 h -0.9 v 0.33 h -1 v 0.32 h -1 v 0.33 h -1 v 0.32 h -1 v 0.33 h -0.9 v 0.33 h -1 v 0.32 h -1 v 0.33 h -1 v 0.32 h -0.9 v 0.33 h -1 v 0.33 h -1 v 0.32 h -0.7 v 0.33 h -0.9 v 0.32 h -1 v 0.33 h -1 v 0.33 h -1 v 0.32 h -0.9 v 0.33 h -1 v 0.32 h -1 v 0.33 h -1 v 0.33 h -0.6 v 0.32 h -1 v 0.33 h -0.7 v 0.32 h -0.9 v 0.33 h -0.7 v 0.33 h -1 v 0.32 h -0.6 v 0.33 h -1 v 0.32 h -0.6 v 0.33 h -1 v 0.33 h -0.7 v 0.32 h -1 v 0.33 h -0.6 v 0.32 h -1 v 0.33 h -1 v 0.33 h -0.6 v 0.32 h -1 v 0.33 h -0.6 v 0.32 h -1 v 0.33 h -0.7 v 0.33 h -0.6 v 0.32 h -1 v 0.33 h -0.7 v 0.32 h -0.6 v 0.33 h -0.7 v 0.33 h -0.9 v 0.32 h -0.7 v 0.33 h -0.6 v 0.32 h -0.7 v 0.33 h -0.6 v 0.33 h -1 v 0.32 h -0.7 v 0.33 h -0.6 v 0.32 h -0.7 v 0.33 h -0.6 v 0.33 h -1 v 0.32 h -0.7 v 0.33 h -0.6 v 0.32 h -0.7 v 0.33 h -0.9 v 0.33 h -0.7 v 0.32 h -0.6 v 0.33 h -0.7 v 0.32 h -0.7 v 0.33 h -0.6 v 0.33 h -0.7 v 0.32 h -0.6 v 0.33 h -0.7 v 0.32 h -0.6 v 0.33 h -0.7 v 0.33 h -0.6 v 0.32 h -0.7 v 0.33 h -0.6 v 0.32 h -0.7 v 0.33 h -0.6 v 0.33 h -0.7 v 0.32 h -0.6 v 0.33 h -0.7 v 0.32 h -0.6 v 0.33 h -0.7 v 0.33 h -0.6 v 0.32 h -0.7 v 0.33 h -0.3 v 0.32 h -0.7 v 0.33 h -0.6 v 0.33 h -0.7 v 0.32 h -0.6 v 0.33 h -0.7 v 0.32 h -0.6 v 0.33 h -0.7 v 0.33 h -0.6 v 0.32 h -0.7 v 0.33 h -0.3 v 0.32 h -0.7 v 0.33 h -0.6 v 0.33 h -0.7 v 0.32 h -0.3 v 0.33 h -0.6 v 0.32 h -0.7 v 0.33 h -0.6 v 0.33 h -0.4 v 0.32 h -0.6 v 0.33 h -0.7 v 0.32 h -0.6 v 0.33 h -0.4 v 0.33 h -0.6 v 0.32 h -0.7 v 0.33 h -0.6 v 0.32 h -0.3 v 0.33 h -0.7 v 0.33 h -0.6 v 0.32 h -0.7 v 0.33 h -0.3 v 0.32 h -0.7 v 0.33 h -0.6 v 0.33 h -0.3 v 0.32 h -0.7 v 0.33 h -0.7 v 0.32 h -0.6 v 0.33 h -0.3 v 0.33 h -0.7 v 0.32 h -0.3 v 0.33 h -0.7 v 0.32 h -0.6 v 0.33 h -0.3 v 0.33 h -0.7 v 0.32 h -0.3 v 0.33 h -0.7 v 0.32 h -0.3 v 0.33 h -0.6 v 0.33 h -0.7 v 0.32 h -0.3 v 0.33 h -0.7 v 0.32 h -0.3 v 0.33 h -0.7 v 0.33 h -0.3 v 0.32 h -0.6 v 0.33 h -0.4 v 0.32 h -0.6 v 0.33 h -0.7 v 0.33 h -0.3 v 0.32 h -0.6 v 0.33 h -0.4 v 0.32 h -0.6 v 0.33 h -0.3 v 0.33 h -0.7 v 0.32 h -0.3 v 0.33 h -0.7 v 0.32 h -0.6 v 0.33 h -0.4 v 0.33 h -0.6 v 0.32 h -0.3 v 0.33 h -0.4 v 0.32 h -0.6 v 0.33 h -0.3 v 0.33 h -0.7 v 0.32 h -0.3 v 0.33 h -0.7 v 0.32 h -0.3 v 0.33 h -0.3 v 0.33 h -0.7 v 0.32 h -0.3 v 0.33 h -0.6 v 0.32 h -0.4 v 0.33 h -0.3 v 0.33 h -0.7 v 0.32 h -0.3 v 0.33 h -0.6 v 0.32 h -0.4 v 0.33 h -0.3 v 0.33 h -0.6 v 0.32 h -0.4 v 0.33 h -0.6 v 0.32 h -0.3 v 0.33 h -0.4 v 0.33 h -0.6 v 0.32 h -0.3 v 0.33 h -0.7 v 0.32 h -0.3 v 0.33 h -0.3 v 0.33 h -0.7 v 0.32 h -0.3 v 0.33 h -0.7 v 0.32 h -0.3 v 0.33 h -0.3 v 0.33 h -0.7 v 0.32 h -0.3 v 0.33 h -0.3 v 0.32 h -0.4 v 0.33 h -0.6 v 0.33 h -0.3 v 0.32 h -0.4 v 0.33 h -0.6 v 0.32 h -0.3 v 0.33 h -0.4 v 0.33 h -0.3 v 0.32 h -0.6 v 0.33 h -0.4 v 0.32 h -0.3 v 0.33 h -0.3 v 0.33 h -0.7 v 0.32 h -0.3 v 0.33 h -0.3 v 0.32 h -0.7 v 0.33 h -0.3 v 0.33 h -0.3 v 0.32 h -0.4 v 0.33 h -0.6 v 0.32 h -0.3 v 0.33 h -0.4 v 0.33 h -0.3 v 0.32 h -0.6 v 0.33 h -0.4 v 0.32 h -0.3 v 0.33 h -0.6 v 0.33 h -0.4 v 0.32 h -0.3 v 0.33 h -0.3 v 0.32 h -0.7 v 0.33 h -0.3 v 0.33 h -0.3 v 0.32 h -0.3 v 0.33 h -0.4 v 0.32 h -0.3 v 0.33 h -0.7 v 0.33 h -0.3 v 0.32 h -0.3 v 0.33 h -0.3 v 0.32 h -0.4 v 0.33 h -0.3 v 0.33 h -0.6 v 0.32 h -0.4 v 0.33 h -0.3 v 0.32 h -0.3 v 0.33 h -0.3 v 0.33 h -0.4 v 0.32 h -0.6 v 0.33 h -0.3 v 0.32 h -0.4 v 0.33 h -0.3 v 0.33 h -0.3 v 0.32 h -0.3 v 0.33 h -0.4 v 0.32 h -0.6 v 0.33 h -0.4 v 0.33 h -0.3 v 0.32 h -0.3 v 0.33 h -0.3 v 0.32 h -0.4 v 0.33 h -0.6 v 0.33 h -0.3 v 0.32 h -0.4 v 0.33 h -0.3 v 0.32 h -0.3 v 0.33 h -0.3 v 0.33 h -0.4 v 0.32 h -0.6 v 0.33 h -0.3 v 0.32 h -0.4 v 0.33 h -0.3 v 0.33 h -0.3 v 0.32 h -0.3 v 0.33 h -0.4 v 0.32 h -0.3 v 0.33 h -0.3 v 0.33 h -0.3 v 0.32 h -0.4 v 0.33 h -0.3 v 0.32 h -0.3 v 0.33 h -0.4 v 0.33 h -0.3 v 0.32 h -0.3 v 0.33 h -0.3 v 0.32 h -0.4 v 0.33 h -0.6 v 0.33 h -0.3 v 0.32 h -0.4 v 0.33 h -0.3 v 0.32 h -0.3 v 0.33 h -0.3 v 0.33 h -0.4 v 0.32 h -0.3 v 0.33 h -0.3 v 0.32 h -0.3 v 0.33 h -0.4 v 0.33 h -0.3 v 0.32 h -0.3 v 0.33 h -0.3 v 0.32 h -0.4 v 0.33 h -0.3 v 0.33 h -0.3 v 0.32 h -0.4 v 0.33 h -0.3 v 0.32 h -0.3 v 0.33 h -0.7 v 0.33 h -0.3 v 0.32 h -0.3 v 0.33 h -0.3 v 0.32 h -0.4 v 0.66 h -0.3 v 0.32 h -0.3 v 0.33 h -0.3 v 0.32 h -0.4 v 0.33 h -0.3 v 0.33 h -0.3 v 0.32 h -0.3 v 0.33 h -0.4 v 0.32 h -0.3 v 0.33 h -0.3 v 0.33 h -0.3 v 0.32 h -0.4 v 0.33 h -0.3 v 0.32 h -0.3 v 0.33 h -0.3 v 0.33 h -0.4 v 0.32 h -0.3 v 0.33 h -0.3 v 0.32 h -0.4 v 0.33 h -0.3 v 0.33 h -0.3 v 0.65 h -0.3 v 0.32 h -0.4 v 0.33 h -0.3 v 0.33 h -0.3 v 0.32 h -0.3 v 0.33 h -0.4 v 0.32 h -0.3 v 0.33 h -0.3 v 0.33 h -0.3 v 0.32 h -0.4 v 0.33 h -0.3 v 0.32 h -0.3 v 0.33 h -0.3 v 0.33 h -0.4 v 0.32 h -0.3 v 0.33 h -0.3 v 0.32 h -0.3 v 0.33 h -0.4 v 0.65 h -0.3 v 0.33 h -0.3 v 0.32 h -0.4 v 0.33 h -0.3 v 0.33 h -0.3 v 0.32 h -0.3 v 0.65 h -0.4 v 0.33 h -0.3 v 0.33 h -0.3 v 0.32 h -0.3 v 0.33 h -0.4 v 0.32 h -0.3 v 0.33 h -0.3 v 0.65 h -0.3 v 0.33 h -0.4 v 0.32 h -0.3 v 0.33 h -0.3 v 0.33 h -0.3 v 0.32 h -0.4 v 0.65 h -0.3 v 0.33 h -0.3 v 0.33 h -0.3 v 0.32 h -0.4 v 0.33 h -0.3 v 0.32 h -0.3 v 0.33 h -0.3 v 0.65 h -0.4 v 0.33 h -0.3 v 0.32 h -0.3 v 0.33 h -0.4 v 0.33 h -0.3 v 0.32 h -0.3 v 0.65 h -0.3 v 0.33 h -0.4 v 0.33 h -0.3 v 0.32 h -0.3 v 0.33 h -0.3 v 0.32 h -0.4 v 0.66 h -0.3 v 0.32 h -0.3 v 0.33 h -0.3 v 0.65 h -0.4 v 0.33 h -0.3 v 0.32 h -0.3 v 0.33 h -0.3 v 0.65 h -0.4 v 0.33 h -0.3 v 0.32 h -0.3 v 0.33 h -0.3 v 0.65 h -0.4 v 0.33 h -0.3 v 0.32 h -0.3 v 0.65 h -0.4 v 0.33 h -0.3 v 0.33 h -0.3 v 0.32 h -0.3 v 0.65 h -0.4 v 0.33 h -0.3 v 0.33 h -0.3 v 0.32 h -0.3 v 0.65 h -0.4 v 0.33 h -0.3 v 0.33 h -0.3 v 0.65 h -0.3 v 0.32 h -0.4 v 0.33 h -0.3 v 0.33 h -0.3 v 0.65 h -0.3 v 0.32 h -0.4 v 0.33 h -0.3 v 0.33 h -0.3 v 0.65 h -0.3 v 0.32 h -0.4 v 0.66 h -0.3 v 0.32 h -0.3 v 0.33 h -0.3 v 0.65 h -0.4 v 0.33 h -0.3 v 0.65 h -0.3 v 0.32 h -0.4 v 0.33 h -0.3 v 0.65 h -0.3 v 0.33 h -0.3 v 0.65 h -0.4 v 0.33 h -0.3 v 0.32 h -0.3 v 0.65 h -0.3 v 0.33 h -0.4 v 0.65 h -0.3 v 0.33 h -0.3 v 0.32 h -0.3 v 0.66 h -0.4 v 0.32 h -0.3 v 0.65 h -0.3 v 0.33 h -0.3 v 0.33 h -0.4 v 0.65 h -0.3 v 0.32 h -0.3 v 0.66 h -0.3 v 0.32 h -0.4 v 0.33 h -0.3 v 0.65 h -0.3 v 0.33 h -0.4 v 0.65 h -0.3 v 0.32 h -0.3 v 0.66 h -0.3 v 0.32 h -0.4 v 0.65 h -0.3 v 0.33 h -0.3 v 0.65 h -0.3 v 0.33 h -0.4 v 0.65 h -0.3 v 0.33 h -0.3 v 0.65 h -0.3 v 0.65 h -0.4 v 0.33 h -0.3 v 0.65 h -0.3 v 0.32 h -0.3 v 0.66 h -0.4 v 0.32 h -0.3 v 0.65 h -0.3 v 0.33 h -0.3 v 0.65 h -0.4 v 0.65 h -0.3 v 0.33 h -0.3 v 0.65 h -0.3 v 0.33 h -0.4 v 0.65 h -0.3 v 0.33 h -0.3 v 0.65 h -0.4 v 0.65 h -0.3 v 0.33 h -0.3 v 0.65 h -0.3 v 0.32 h -0.4 v 0.66 h -0.3 v 0.32 h -0.3 v 0.65 h -0.3 v 0.66 h -0.4 v 0.32 h -0.3 v 0.65 h -0.3 v 0.66 h -0.3 v 0.65 h -0.4 v 0.32 h -0.3 v 0.66 h -0.3 v 0.65 h -0.3 v 0.65 h -0.4 v 0.33 h -0.3 v 0.65 h -0.3 v 0.65 h -0.3 v 0.33 h -0.4 v 0.65 h -0.3 v 0.65 h -0.3 v 0.65 h -0.4 v 0.33 h -0.3 v 0.65 h -0.3 v 0.65 h -0.3 v 0.65 h -0.4 v 0.33 h -0.3 v 0.65 h -0.3 v 0.65 h -0.3 v 0.66 h -0.4 v 0.32 h -0.3 v 0.65 h -0.3 v 0.66 h -0.3 v 0.65 h -0.4 v 0.32 h -0.3 v 0.66 h -0.3 v 0.65 h -0.3 v 0.65 h -0.4 v 0.65 h -0.3 v 0.65 h -0.3 v 0.66 h -0.3 v 0.65 h -0.4 v 0.65 h -0.3 v 0.65 h -0.3 v 0.65 h -0.3 v 0.66 h -0.4 v 0.65 h -0.3 v 0.65 h -0.3 v 0.65 h -0.4 v 0.65 h -0.3 v 0.66 h -0.3 v 0.65 h -0.3 v 0.32 h -0.4 v 0.66 h -0.3 v 0.65 h -0.3 v 0.65 h -0.3 v 0.65 h -0.4 v 0.65 h -0.3 v 0.66 h -0.3 v 0.65 h -0.3 v 0.65 h -0.4 v 0.65 h -0.3 v 0.65 h -0.3 v 0.98 h -0.3 v 0.65 h -0.4 v 0.66 h -0.3 v 0.65 h -0.3 v 0.65 h -0.3 v 0.98 h -0.4 v 0.65 h -0.3 v 0.65 h -0.3 v 0.65 h -0.4 v 0.98 h -0.3 v 0.65 h -0.3 v 0.66 h -0.3 v 0.65 h -0.4 v 0.65 h -0.3 v 0.98 h -0.3 v 0.65 h -0.3 v 0.65 h -0.4 v 0.65 h -0.3 v 0.66 h -0.3 v 0.97 h -0.3 v 0.66 h -0.4 v 0.65 h -0.3 v 0.65 h -0.3 v 0.98 h -0.3 v 0.98 h -0.4 v 0.65 h -0.3 v 0.98 h -0.3 v 0.65 h -0.3 v 0.98 h -0.4 v 0.65 h -0.3 v 0.98 h -0.3 v 0.65 h -0.3 v 0.98 h -0.4 v 0.65 h -0.3 v 0.98 h -0.3 v 0.65 h -0.4 v 0.98 h -0.3 v 0.65 h -0.3 v 0.98 h -0.3 v 0.97 h -0.4 v 0.66 h -0.3 v 0.97 h -0.3 v 0.66 h -0.3 v 0.97 h -0.4 v 0.98 h -0.3 v 0.98 h -0.3 v 0.98 h -0.3 v 0.98 h -0.4 v 0.65 h -0.3 v 0.98 h -0.3 v 0.97 h -0.3 v 0.98 h -0.4 v 0.98 h -0.3 v 0.98 h -0.3 v 0.98 h -0.3 v 0.97 h -0.4 v 0.98 h -0.3 v 0.98 h -0.3 v 0.98 h -0.4 v 0.98 h -0.3 v 0.97 h -0.3 v 0.98 h -0.3 v 0.98 h -0.4 v 0.98 h -0.3 v 1.3 h -0.3 v 1.31 h -0.3 v 0.97 h -0.4 v 1.31 h -0.3 v 0.98 h -0.3 v 1.3 h -0.3 v 0.98 h -0.4 v 1.3 h -0.3 v 0.98 h -0.3 v 1.3 h -0.3 v 0.98 h -0.4 v 1.31 h -0.3 v 0.97 h -0.3 v 1.31 h -0.3 v 0.98 h -0.4 v 1.63 h -0.3 v 1.3 h -0.3 v 1.3 h -0.3 v 1.63 h -0.4 v 1.31 h -0.3 v 1.3 h -0.3 v 1.63 h -0.4 v 1.31 h -0.3 v 1.3 h -0.3 v 1.63 h -0.3 v 1.3 h -0.4 v 1.31 h -0.3 v 1.63 h -0.3 v 1.63 h -0.3 v 1.63 h -0.4 v 1.95 h -0.3 v 1.63 h -0.3 v 1.96 h -0.3 v 1.96 h -0.4 v 1.63 h -0.3 v 1.95 h -0.3 v 1.96 h -0.3 v 1.63 h -0.4 v 1.95 h -0.3 v 2.61 h -0.3 v 2.61 h -0.3 v 2.28 h -0.4 v 2.61 h -0.3 v 2.61 h -0.3 v 2.61 h -0.4 v 2.6 h -0.3 v 3.26 h -0.3 v 4.24 h -0.3 v 4.24 h -0.4 v 4.24 h -0.3 v 4.24 h -0.3 v 8.47 h -0.3 v 25.76 h 0.3 v 8.47 h 0.3 v 4.24 h 0.3 v 4.24 h 0.4 v 4.56 h 0.3 v 4.24 h 0.3 v 3.26 h 0.3 v 2.61 h 0.4 v 2.28 h 0.3 v 2.61 h 0.3 v 2.61 h 0.4 v 2.6 h 0.3 v 2.61 h 0.3 v 2.61 h 0.3 v 1.63 h 0.4 v 1.96 h 0.3 v 1.95 h 0.3 v 1.63 h 0.3 v 1.96 h 0.4 v 1.63 h 0.3 v 1.95 h 0.3 v 1.96 h 0.3 v 1.63 h 0.4 v 1.96 h 0.3 v 1.63 h 0.3 v 1.3 h 0.3 v 1.63 h 0.4 v 1.3 h 0.3 v 1.31 h 0.3 v 1.63 h 0.3 v 1.3 h 0.4 v 1.31 h 0.3 v 1.63 h 0.3 v 1.3 h 0.4 v 1.3 h 0.3 v 1.63 h 0.3 v 1.31 h 0.3 v 1.3 h 0.4 v 1.31 h 0.3 v 0.97 h 0.3 v 1.31 h 0.3 v 0.98 h 0.4 v 1.3 h 0.3 v 0.98 h 0.3 v 1.3 h 0.3 v 0.98 h 0.4 v 1.3 h 0.3 v 0.98 h 0.3 v 1.31 h 0.3 v 0.97 h 0.4 v 1.31 h 0.3 v 1.3 h 0.3 v 0.98 h 0.3 v 1.3 h 0.4 v 0.98 h 0.3 v 0.98 h 0.3 v 0.98 h 0.3 v 0.65 h 0.4 v 0.98 h 0.3 v 0.98 h 0.3 v 0.97 h 0.4 v 0.98 h 0.3 v 0.98 h 0.3 v 0.98 h 0.3 v 0.98 h 0.4 v 0.97 h 0.3 v 0.98 h 0.3 v 0.98 h 0.3 v 0.98 h 0.4 v 0.98 h 0.3 v 0.97 h 0.3 v 0.98 h 0.3 v 0.98 h 0.4 v 0.65 h 0.3 v 0.98 h 0.3 v 0.65 h 0.3 v 0.98 h 0.4 v 0.98 h 0.3 v 0.65 h 0.3 v 0.98 h 0.3 v 0.65 h 0.4 v 0.98 h 0.3 v 0.65 h 0.3 v 0.98 h 0.4 v 0.65 h 0.3 v 0.98 h 0.3 v 0.65 h 0.3 v 0.98 h 0.4 v 0.65 h 0.3 v 0.98 h 0.3 v 0.65 h 0.3 v 0.98 h 0.4 v 0.98 h 0.3 v 0.65 h 0.3 v 0.65 h 0.3 v 0.98 h 0.4 v 0.65 h 0.3 v 0.65 h 0.3 v 0.65 h 0.3 v 0.98 h 0.4 v 0.65 h 0.3 v 0.66 h 0.3 v 0.65 h 0.3 v 0.65 h 0.4 v 0.98 h 0.3 v 0.65 h 0.3 v 0.65 h 0.3 v 0.65 h 0.4 v 0.66 h 0.3 v 0.97 h 0.3 v 0.66 h 0.4 v 0.65 h 0.3 v 0.65 h 0.3 v 0.65 h 0.3 v 0.98 h 0.4 v 0.65 h 0.3 v 0.65 h 0.3 v 0.66 h 0.3 v 0.65 h 0.4 v 0.65 h 0.3 v 0.65 h 0.3 v 0.65 h 0.3 v 0.66 h 0.4 v 0.65 h 0.3 v 0.65 h 0.3 v 0.65 h 0.3 v 0.65 h 0.4 v 0.66 h 0.3 v 0.65 h 0.3 v 0.65 h 0.3 v 0.65 h 0.4 v 0.65 h 0.3 v 0.66 h 0.3 v 0.65 h 0.4 v 0.65 h 0.3 v 0.65 h 0.3 v 0.65 h 0.3 v 0.66 h 0.4 v 0.32 h 0.3 v 0.65 h 0.3 v 0.66 h 0.3 v 0.65 h 0.4 v 0.65 h 0.3 v 0.65 h 0.3 v 0.65 h 0.3 v 0.66 h 0.4 v 0.65 h 0.3 v 0.32 h 0.3 v 0.66 h 0.3 v 0.65 h 0.4 v 0.65 h 0.3 v 0.33 h 0.3 v 0.65 h 0.3 v 0.65 h 0.4 v 0.65 h 0.3 v 0.33 h 0.3 v 0.65 h 0.3 v 0.65 h 0.4 v 0.65 h 0.3 v 0.33 h 0.3 v 0.65 h 0.4 v 0.65 h 0.3 v 0.66 h 0.3 v 0.32 h 0.3 v 0.65 h 0.4 v 0.66 h 0.3 v 0.32 h 0.3 v 0.65 h 0.3 v 0.66 h 0.4 v 0.65 h 0.3 v 0.32 h 0.3 v 0.66 h 0.3 v 0.65 h 0.4 v 0.65 h 0.3 v 0.33 h 0.3 v 0.65 h 0.3 v 0.32 h 0.4 v 0.66 h 0.3 v 0.32 h 0.3 v 0.65 h 0.3 v 0.66 h 0.4 v 0.32 h 0.3 v 0.65 h 0.3 v 0.33 h 0.4 v 0.65 h 0.3 v 0.33 h 0.3 v 0.65 h 0.3 v 0.33 h 0.4 v 0.65 h 0.3 v 0.65 h 0.3 v 0.33 h 0.3 v 0.65 h 0.4 v 0.32 h 0.3 v 0.66 h 0.3 v 0.32 h 0.3 v 0.65 h 0.4 v 0.66 h 0.3 v 0.32 h 0.3 v 0.65 h 0.3 v 0.33 h 0.4 v 0.65 h 0.3 v 0.33 h 0.3 v 0.65 h 0.3 v 0.33 h 0.4 v 0.65 h 0.3 v 0.32 h 0.3 v 0.66 h 0.3 v 0.32 h 0.4 v 0.65 h 0.3 v 0.33 h 0.3 v 0.33 h 0.4 v 0.65 h 0.3 v 0.32 h 0.3 v 0.66 h 0.3 v 0.32 h 0.4 v 0.33 h 0.3 v 0.65 h 0.3 v 0.33 h 0.3 v 0.65 h 0.4 v 0.32 h 0.3 v 0.66 h 0.3 v 0.32 h 0.3 v 0.33 h 0.4 v 0.65 h 0.3 v 0.33 h 0.3 v 0.65 h 0.3 v 0.32 h 0.4 v 0.33 h 0.3 v 0.65 h 0.3 v 0.33 h 0.3 v 0.65 h 0.4 v 0.33 h 0.3 v 0.32 h 0.3 v 0.65 h 0.4 v 0.33 h 0.3 v 0.65 h 0.3 v 0.33 h 0.3 v 0.32 h 0.4 v 0.66 h 0.3 v 0.32 h 0.3 v 0.33 h 0.3 v 0.65 h 0.4 v 0.33 h 0.3 v 0.32 h 0.3 v 0.33 h 0.3 v 0.65 h 0.4 v 0.33 h 0.3 v 0.32 h 0.3 v 0.33 h 0.3 v 0.65 h 0.4 v 0.33 h 0.3 v 0.32 h 0.3 v 0.65 h 0.3 v 0.33 h 0.4 v 0.33 h 0.3 v 0.32 h 0.3 v 0.65 h 0.3 v 0.33 h 0.4 v 0.33 h 0.3 v 0.32 h 0.3 v 0.65 h 0.4 v 0.33 h 0.3 v 0.33 h 0.3 v 0.65 h 0.3 v 0.32 h 0.4 v 0.33 h 0.3 v 0.33 h 0.3 v 0.65 h 0.3 v 0.32 h 0.4 v 0.33 h 0.3 v 0.33 h 0.3 v 0.65 h 0.3 v 0.32 h 0.4 v 0.33 h 0.3 v 0.33 h 0.3 v 0.65 h 0.3 v 0.32 h 0.4 v 0.33 h 0.3 v 0.33 h 0.3 v 0.32 h 0.3 v 0.33 h 0.4 v 0.65 h 0.3 v 0.33 h 0.3 v 0.32 h 0.4 v 0.33 h 0.3 v 0.32 h 0.3 v 0.33 h 0.3 v 0.33 h 0.4 v 0.65 h 0.3 v 0.32 h 0.3 v 0.33 h 0.3 v 0.33 h 0.4 v 0.32 h 0.3 v 0.33 h 0.3 v 0.65 h 0.3 v 0.33 h 0.4 v 0.32 h 0.3 v 0.33 h 0.3 v 0.32 h 0.3 v 0.33 h 0.4 v 0.65 h 0.3 v 0.33 h 0.3 v 0.32 h 0.3 v 0.33 h 0.4 v 0.33 h 0.3 v 0.32 h 0.3 v 0.33 h 0.3 v 0.65 h 0.4 v 0.33 h 0.3 v 0.32 h 0.3 v 0.33 h 0.4 v 0.32 h 0.3 v 0.33 h 0.3 v 0.33 h 0.3 v 0.32 h 0.4 v 0.33 h 0.3 v 0.32 h 0.3 v 0.33 h 0.3 v 0.65 h 0.4 v 0.33 h 0.3 v 0.32 h 0.3 v 0.33 h 0.3 v 0.33 h 0.4 v 0.32 h 0.3 v 0.33 h 0.3 v 0.32 h 0.3 v 0.33 h 0.4 v 0.33 h 0.3 v 0.32 h 0.3 v 0.33 h 0.3 v 0.32 h 0.4 v 0.33 h 0.3 v 0.33 h 0.3 v 0.32 h 0.4 v 0.33 h 0.3 v 0.32 h 0.3 v 0.33 h 0.3 v 0.33 h 0.4 v 0.65 h 0.3 v 0.32 h 0.3 v 0.33 h 0.3 v 0.33 h 0.4 v 0.32 h 0.3 v 0.33 h 0.3 v 0.32 h 0.3 v 0.33 h 0.4 v 0.33 h 0.3 v 0.32 h 0.3 v 0.33 h 0.3 v 0.32 h 0.4 v 0.33 h 0.3 v 0.33 h 0.3 v 0.32 h 0.3 v 0.33 h 0.4 v 0.32 h 0.3 v 0.33 h 0.3 v 0.33 h 0.3 v 0.32 h 0.4 v 0.33 h 0.3 v 0.32 h 0.3 v 0.33 h 0.4 v 0.33 h 0.3 v 0.32 h 0.3 v 0.33 h 0.3 v 0.32 h 0.7 v 0.33 h 0.3 v 0.33 h 0.3 v 0.32 h 0.4 v 0.33 h 0.3 v 0.32 h 0.3 v 0.33 h 0.3 v 0.33 h 0.4 v 0.32 h 0.3 v 0.33 h 0.3 v 0.32 h 0.3 v 0.33 h 0.4 v 0.33 h 0.3 v 0.32 h 0.3 v 0.33 h 0.3 v 0.32 h 0.4 v 0.33 h 0.3 v 0.33 h 0.3 v 0.32 h 0.4 v 0.33 h 0.3 v 0.32 h 0.6 v 0.33 h 0.4 v 0.33 h 0.3 v 0.32 h 0.3 v 0.33 h 0.3 v 0.32 h 0.4 v 0.33 h 0.3 v 0.33 h 0.3 v 0.32 h 0.3 v 0.33 h 0.4 v 0.32 h 0.3 v 0.33 h 0.6 v 0.33 h 0.4 v 0.32 h 0.3 v 0.33 h 0.3 v 0.32 h 0.3 v 0.33 h 0.4 v 0.33 h 0.3 v 0.32 h 0.6 v 0.33 h 0.4 v 0.32 h 0.3 v 0.33 h 0.3 v 0.33 h 0.4 v 0.32 h 0.3 v 0.33 h 0.6 v 0.32 h 0.4 v 0.33 h 0.3 v 0.33 h 0.3 v 0.32 h 0.3 v 0.33 h 0.4 v 0.32 h 0.6 v 0.33 h 0.3 v 0.33 h 0.4 v 0.32 h 0.3 v 0.33 h 0.3 v 0.32 h 0.3 v 0.33 h 0.4 v 0.33 h 0.6 v 0.32 h 0.3 v 0.33 h 0.4 v 0.32 h 0.3 v 0.33 h 0.3 v 0.33 h 0.4 v 0.32 h 0.6 v 0.33 h 0.3 v 0.32 h 0.4 v 0.33 h 0.3 v 0.33 h 0.6 v 0.32 h 0.4 v 0.33 h 0.3 v 0.32 h 0.3 v 0.33 h 0.7 v 0.33 h 0.3 v 0.32 h 0.3 v 0.33 h 0.3 v 0.32 h 0.7 v 0.33 h 0.3 v 0.33 h 0.3 v 0.32 h 0.7 v 0.33 h 0.3 v 0.32 h 0.3 v 0.33 h 0.4 v 0.33 h 0.6 v 0.32 h 0.4 v 0.33 h 0.3 v 0.32 h 0.3 v 0.33 h 0.7 v 0.33 h 0.3 v 0.32 h 0.3 v 0.33 h 0.7 v 0.32 h 0.3 v 0.33 h 0.3 v 0.33 h 0.3 v 0.32 h 0.7 v 0.33 h 0.3 v 0.32 h 0.3 v 0.33 h 0.4 v 0.33 h 0.6 v 0.32 h 0.3 v 0.33 h 0.4 v 0.32 h 0.6 v 0.33 h 0.4 v 0.33 h 0.3 v 0.32 h 0.6 v 0.33 h 0.4 v 0.32 h 0.6 v 0.33 h 0.3 v 0.33 h 0.4 v 0.32 h 0.6 v 0.33 h 0.3 v 0.32 h 0.7 v 0.33 h 0.3 v 0.33 h 0.3 v 0.32 h 0.7 v 0.33 h 0.3 v 0.32 h 0.7 v 0.33 h 0.3 v 0.33 h 0.3 v 0.32 h 0.7 v 0.33 h 0.3 v 0.32 h 0.7 v 0.33 h 0.3 v 0.33 h 0.6 v 0.32 h 0.4 v 0.33 h 0.3 v 0.32 h 0.6 v 0.33 h 0.4 v 0.33 h 0.6 v 0.32 h 0.3 v 0.33 h 0.4 v 0.32 h 0.6 v 0.33 h 0.3 v 0.33 h 0.7 v 0.32 h 0.3 v 0.33 h 0.7 v 0.32 h 0.3 v 0.33 h 0.7 v 0.33 h 0.3 v 0.32 h 0.6 v 0.33 h 0.4 v 0.32 h 0.6 v 0.33 h 0.7 v 0.33 h 0.3 v 0.32 h 0.6 v 0.33 h 0.4 v 0.32 h 0.6 v 0.33 h 0.3 v 0.33 h 0.7 v 0.32 h 0.3 v 0.33 h 0.7 v 0.32 h 0.6 v 0.33 h 0.3 v 0.33 h 0.7 v 0.32 h 0.3 v 0.33 h 0.7 v 0.32 h 0.3 v 0.33 h 0.7 v 0.33 h 0.3 v 0.32 h 0.6 v 0.33 h 0.7 v 0.32 h 0.3 v 0.33 h 0.7 v 0.33 h 0.3 v 0.32 h 0.6 v 0.33 h 0.4 v 0.32 h 0.6 v 0.33 h 0.7 v 0.33 h 0.6 v 0.32 h 0.4 v 0.33 h 0.6 v 0.32 h 0.7 v 0.33 h 0.6 v 0.33 h 0.3 v 0.32 h 0.7 v 0.33 h 0.6 v 0.32 h 0.7 v 0.33 h 0.3 v 0.33 h 0.7 v 0.32 h 0.6 v 0.33 h 0.3 v 0.32 h 0.7 v 0.33 h 0.6 v 0.33 h 0.7 v 0.32 h 0.3 v 0.33 h 0.7 v 0.32 h 0.6 v 0.33 h 0.7 v 0.33 h 0.3 v 0.32 h 0.7 v 0.33 h 0.6 v 0.32 h 0.7 v 0.33 h 0.3 v 0.33 h 0.6 v 0.32 h 0.7 v 0.33 h 0.6 v 0.32 h 0.7 v 0.33 h 0.7 v 0.33 h 0.6 v 0.32 h 0.7 v 0.33 h 0.6 v 0.32 h 0.3 v 0.33 h 0.7 v 0.33 h 0.6 v 0.32 h 0.7 v 0.33 h 0.6 v 0.32 h 0.7 v 0.33 h 0.6 v 0.33 h 0.7 v 0.32 h 0.6 v 0.33 h 0.7 v 0.32 h 0.7 v 0.33 h 0.6 v 0.33 h 0.7 v 0.32 h 0.6 v 0.33 h 0.7 v 0.32 h 0.6 v 0.33 h 0.7 v 0.33 h 0.6 v 0.32 h 0.7 v 0.33 h 0.6 v 0.32 h 0.7 v 0.33 h 0.6 v 0.33 h 0.7 v 0.32 h 0.6 v 0.33 h 1 v 0.32 h 0.7 v 0.33 h 0.6 v 0.33 h 0.7 v 0.32 h 0.6 v 0.33 h 1 v 0.32 h 0.6 v 0.33 h 0.7 v 0.33 h 0.6 v 0.32 h 0.7 v 0.33 h 1 v 0.32 h 0.6 v 0.33 h 0.7 v 0.33 h 0.6 v 0.32 h 1 v 0.33 h 0.7 v 0.32 h 0.6 v 0.33 h 0.7 v 0.33 h 0.6 v 0.32 h 1 v 0.33 h 0.7 v 0.32 h 0.6 v 0.33 h 1 v 0.33 h 1 v 0.32 h 0.6 v 0.33 h 1 v 0.32 h 0.6 v 0.33 h 1 v 0.33 h 0.7 v 0.32 h 0.9 v 0.33 h 0.7 v 0.32 h 1 v 0.33 h 0.6 v 0.33 h 1 v 0.32 h 0.7 v 0.33 h 0.9 v 0.32 h 1 v 0.33 h 0.7 v 0.33 h 0.9 v 0.32 h 0.7 v 0.33 h 1 v 0.32 h 0.6 v 0.33 h 1 v 0.33 h 1 v 0.32 h 1 v 0.33 h 0.9 v 0.32 h 1 v 0.33 h 1 v 0.33 h 1 v 0.32 h 1 v 0.33 h 0.9 v 0.32 h 1 v 0.33 h 1 v 0.33 h 1 v 0.32 h 0.9 v 0.33 h 1 v 0.32 h 1 v 0.33 h 1 v 0.33 h 0.6 v 0.32 h 1 v 0.33 h 1 v 0.32 h 1.3 v 0.33 h 1.3 v 0.33 h 1 v 0.32 h 1.3 v 0.33 h 1 v 0.32 h 1.3 v 0.33 h 0.9 v 0.33 h 1.3 v 0.32 h 1 v 0.33 h 1.3 v 0.32 h 1 v 0.33 h 1.3 v 0.33 h 1 v 0.32 h 1.3 v 0.33 h 1 v 0.32 h 1.3 v 0.33 h 1.3 v 0.33 h 1.6 v 0.32 h 1.3 v 0.33 h 1.3 v 0.32 h 1.6 v 0.33 h 1.3 v 0.33 h 1.3 v 0.32 h 1.7 v 0.33 h 1.3 v 0.32 h 1.3 v 0.33 h 1.6 v 0.33 h 1.3 v 0.32 h 1.3 v 0.33 h 1.7 v 0.32 h 1.9 v 0.33 h 2 v 0.33 h 1.6 v 0.32 h 2 v 0.33 h 1.6 v 0.32 h 1.9 v 0.33 h 2 v 0.33 h 1.6 v 0.32 h 2 v 0.33 h 1.6 v 0.32 h 2.6 v 0.33 h 2.6 v 0.33 h 2.6 v 0.32 h 2.6 v 0.33 h 2.6 v 0.32 h 2.7 v 0.33 h 2.6 v 0.33 h 3.2 v 0.32 h 4.3 v 0.33 h 4.2 v 0.32 h 4.2 v 0.33 h 4.3 v 0.33 h 8.8 v 0.32 h 25.1 v -0.32 h 8.5 v -0.33 h 4.2 v -0.33 h 4.2 v -0.32 h 4.3 v -0.33 h 4.5 v -0.32 h 3.3 v -0.33 h 2.6 v -0.33 h 2.6 v -0.32 h 2.3 v -0.33 h 2.6 v -0.32 h 2.6 v -0.33 h 2.6 v -0.33 h 2.6 v -0.32 h 2 v -0.33 h 1.6 v -0.32 h 2 v -0.33 h 1.6 v -0.33 h 2 v -0.32 h 1.9 v -0.33 h 1.6 v -0.32 h 2 v -0.33 h 1.6 v -0.33 h 2 v -0.32 h 1.6 v -0.33 h 1.6 v -0.32 h 1.3 v -0.33 h 1.3 v -0.33 h 1.7 v -0.32 h 1.3 v -0.33 h 1.3 v -0.32 h 1.6 v -0.33 h 1.3 v -0.33 h 1.3 v -0.32 h 1.7 v -0.33 h 1.3 v -0.32 h 1.3 v -0.33 h 1.3 v -0.33 h 1.3 V 7913 h 1.3 v -0.33 h 1 v -0.32 h 1.3 v -0.33 h 0.9 v -0.33 h 1.3 v -0.32 h 1 v -0.33 h 1.3 v -0.32 h 1 v -0.33 h 1.3 v -0.33 h 1 v -0.32 h 1.3 v -0.33 h 1 v -0.32 h 1.3 v -0.33 h 0.9 v -0.33 h 1.3 v -0.32 h 0.7 v -747.19 h -0.3 v -0.33 h -1 v -0.33 h -1.3 v -0.32 h -1 v -0.33 h -1.3 v -0.32 h -1 v -0.33 h -1.3 v -0.33 h -0.9 v -0.32 h -1.4 v -0.33 h -0.9 v -0.32 h -1.3 v -0.33 h -1 V 7157 h -1.3 v -0.32 h -1 v -0.33 h -1.3 v -0.32 h -1 v -0.33 h -1.3 v -0.33 h -1.3 v -0.32 h -1.3 v -0.33 h -1.3 v -0.32 h -1.6 v -0.33 h -1.3 v -0.33 h -1.3 v -0.32 h -1.7 v -0.33 h -1.3 v -0.32 h -1.3 v -0.33 h -1.6 v -0.33 h -1.3 v -0.32 h -1.3 v -0.33 h -1.6 v -0.32 h -1.3 v -0.33 h -2 v -0.33 h -1.6 v -0.32 h -2 v -0.33 h -1.9 v -0.32 h -1.7 v -0.33 h -1.9 v -0.33 h -1.7 v -0.32 h -1.9 v -0.33 h -2 v -0.32 h -1.6 v -0.33 h -2.3 v -0.33 h -2.6 v -0.32 h -2.6 v -0.33 h -2.6 v -0.32 h -2.6 v -0.33 h -2.6 v -0.33 h -2.3 v -0.32 h -2.6 v -0.33 h -4.2 v -0.32 h -4.3 v -0.33 h -4.5 v -0.33 h -4.3 v -0.32 h -5.9 v -0.33 h -9.7 v -0.32" /></g></g></g></g></g></g></svg>
