<svg xmlns="http://www.w3.org/2000/svg" xmlns:xlink="http://www.w3.org/1999/xlink" id="visual" version="1.1" viewBox="0 0 960 189.13"><path d="M0 93L32 101.3C64 109.7 128 126.3 192 135C256 143.7 320 144.3 384 148.8C448 153.3 512 161.7 576 169.8C640 178 704 186 768 188.3C832 190.7 896 187.3 928 185.7L960 184L960 0L928 0C896 0 832 0 768 0C704 0 640 0 576 0C512 0 448 0 384 0C320 0 256 0 192 0C128 0 64 0 32 0L0 0Z" fill="#9cdbff"/><path d="M0 135L32 134.3C64 133.7 128 132.3 192 138C256 143.7 320 156.3 384 151.3C448 146.3 512 123.7 576 108.2C640 92.7 704 84.3 768 87.3C832 90.3 896 104.7 928 111.8L960 119L960 0L928 0C896 0 832 0 768 0C704 0 640 0 576 0C512 0 448 0 384 0C320 0 256 0 192 0C128 0 64 0 32 0L0 0Z" fill="#92d7ff"/><path d="M0 90L32 84.3C64 78.7 128 67.3 192 76.2C256 85 320 114 384 128.2C448 142.3 512 141.7 576 142.3C640 143 704 145 768 142.5C832 140 896 133 928 129.5L960 126L960 0L928 0C896 0 832 0 768 0C704 0 640 0 576 0C512 0 448 0 384 0C320 0 256 0 192 0C128 0 64 0 32 0L0 0Z" fill="#87d2ff"/><path d="M0 63L32 65.2C64 67.3 128 71.7 192 75.3C256 79 320 82 384 90.2C448 98.3 512 111.7 576 113C640 114.3 704 103.7 768 89.8C832 76 896 59 928 50.5L960 42L960 0L928 0C896 0 832 0 768 0C704 0 640 0 576 0C512 0 448 0 384 0C320 0 256 0 192 0C128 0 64 0 32 0L0 0Z" fill="#7cceff"/><path d="M0 82L32 77.5C64 73 128 64 192 66.3C256 68.7 320 82.3 384 85.8C448 89.3 512 82.7 576 73.3C640 64 704 52 768 48.2C832 44.3 896 48.7 928 50.8L960 53L960 0L928 0C896 0 832 0 768 0C704 0 640 0 576 0C512 0 448 0 384 0C320 0 256 0 192 0C128 0 64 0 32 0L0 0Z" fill="#71caff"/><path d="M0 32L32 32.2C64 32.3 128 32.7 192 38.7C256 44.7 320 56.3 384 59C448 61.7 512 55.3 576 54.5C640 53.7 704 58.3 768 55C832 51.7 896 40.3 928 34.7L960 29L960 0L928 0C896 0 832 0 768 0C704 0 640 0 576 0C512 0 448 0 384 0C320 0 256 0 192 0C128 0 64 0 32 0L0 0Z" fill="#64c5ff"/><path d="M0 26L32 29.5C64 33 128 40 192 43.5C256 47 320 47 384 42.3C448 37.7 512 28.3 576 25.2C640 22 704 25 768 28C832 31 896 34 928 35.5L960 37L960 0L928 0C896 0 832 0 768 0C704 0 640 0 576 0C512 0 448 0 384 0C320 0 256 0 192 0C128 0 64 0 32 0L0 0Z" fill="#57c1ff"/></svg>