<svg xmlns="http://www.w3.org/2000/svg" xmlns:xlink="http://www.w3.org/1999/xlink" id="visual" version="1.1" viewBox="0 358.56 960 182.44"><path d="M0 397L32 391.8C64 386.7 128 376.3 192 368C256 359.7 320 353.3 384 364.8C448 376.3 512 405.7 576 420.8C640 436 704 437 768 431C832 425 896 412 928 405.5L960 399L960 541L928 541C896 541 832 541 768 541C704 541 640 541 576 541C512 541 448 541 384 541C320 541 256 541 192 541C128 541 64 541 32 541L0 541Z" fill="#9cdbff"/><path d="M0 437L32 436.7C64 436.3 128 435.7 192 430.8C256 426 320 417 384 415.7C448 414.3 512 420.7 576 431.3C640 442 704 457 768 453.2C832 449.3 896 426.7 928 415.3L960 404L960 541L928 541C896 541 832 541 768 541C704 541 640 541 576 541C512 541 448 541 384 541C320 541 256 541 192 541C128 541 64 541 32 541L0 541Z" fill="#92d7ff"/><path d="M0 425L32 426.3C64 427.7 128 430.3 192 426.8C256 423.3 320 413.7 384 420.7C448 427.7 512 451.3 576 455.5C640 459.7 704 444.3 768 430C832 415.7 896 402.3 928 395.7L960 389L960 541L928 541C896 541 832 541 768 541C704 541 640 541 576 541C512 541 448 541 384 541C320 541 256 541 192 541C128 541 64 541 32 541L0 541Z" fill="#87d2ff"/><path d="M0 476L32 477.8C64 479.7 128 483.3 192 485.2C256 487 320 487 384 483.7C448 480.3 512 473.7 576 461.8C640 450 704 433 768 434.5C832 436 896 456 928 466L960 476L960 541L928 541C896 541 832 541 768 541C704 541 640 541 576 541C512 541 448 541 384 541C320 541 256 541 192 541C128 541 64 541 32 541L0 541Z" fill="#7cceff"/><path d="M0 500L32 494.3C64 488.7 128 477.3 192 469.3C256 461.3 320 456.7 384 462.3C448 468 512 484 576 491.7C640 499.3 704 498.7 768 492.3C832 486 896 474 928 468L960 462L960 541L928 541C896 541 832 541 768 541C704 541 640 541 576 541C512 541 448 541 384 541C320 541 256 541 192 541C128 541 64 541 32 541L0 541Z" fill="#71caff"/><path d="M0 495L32 493.3C64 491.7 128 488.3 192 483.7C256 479 320 473 384 476.8C448 480.7 512 494.3 576 498.5C640 502.7 704 497.3 768 490.2C832 483 896 474 928 469.5L960 465L960 541L928 541C896 541 832 541 768 541C704 541 640 541 576 541C512 541 448 541 384 541C320 541 256 541 192 541C128 541 64 541 32 541L0 541Z" fill="#64c5ff"/><path d="M0 500L32 501.5C64 503 128 506 192 509.2C256 512.3 320 515.7 384 513C448 510.3 512 501.7 576 501.2C640 500.7 704 508.3 768 511.5C832 514.7 896 513.3 928 512.7L960 512L960 541L928 541C896 541 832 541 768 541C704 541 640 541 576 541C512 541 448 541 384 541C320 541 256 541 192 541C128 541 64 541 32 541L0 541Z" fill="#57c1ff"/></svg>