<svg xmlns="http://www.w3.org/2000/svg" xmlns:xlink="http://www.w3.org/1999/xlink" id="visual" version="1.1" viewBox="0 0 960 139.95"><path d="M0 94L20 103.7C40 113.3 80 132.7 120 138.2C160 143.7 200 135.3 240 126C280 116.7 320 106.3 360 100.7C400 95 440 94 480 93.7C520 93.3 560 93.7 600 104.3C640 115 680 136 720 131.7C760 127.3 800 97.7 840 93.7C880 89.7 920 111.3 940 122.2L960 133L960 0L940 0C920 0 880 0 840 0C800 0 760 0 720 0C680 0 640 0 600 0C560 0 520 0 480 0C440 0 400 0 360 0C320 0 280 0 240 0C200 0 160 0 120 0C80 0 40 0 20 0L0 0Z" fill="#73cbff" stroke-linecap="round" stroke-linejoin="miter"></path></svg>
