<svg xmlns="http://www.w3.org/2000/svg" xmlns:xlink="http://www.w3.org/1999/xlink" id="visual" version="1.1" viewBox="0 393 960 148"><path d="M0 393L20 406C40 419 80 445 120 446.7C160 448.3 200 425.7 240 419C280 412.3 320 421.7 360 427.2C400 432.7 440 434.3 480 431C520 427.7 560 419.3 600 421.7C640 424 680 437 720 445.7C760 454.3 800 458.7 840 457.5C880 456.3 920 449.7 940 446.3L960 443L960 541L940 541C920 541 880 541 840 541C800 541 760 541 720 541C680 541 640 541 600 541C560 541 520 541 480 541C440 541 400 541 360 541C320 541 280 541 240 541C200 541 160 541 120 541C80 541 40 541 20 541L0 541Z" fill="#73cbff" stroke-linecap="round" stroke-linejoin="miter"></path></svg>
