<svg xmlns="http://www.w3.org/2000/svg" xmlns:xlink="http://www.w3.org/1999/xlink" id="visual" version="1.1" viewBox="0 459 960 82"><path d="M0 485L11.5 487C23 489 46 493 68.8 489.5C91.7 486 114.3 475 137.2 472.3C160 469.7 183 475.3 205.8 474.2C228.7 473 251.3 465 274.2 461.8C297 458.7 320 460.3 342.8 463.2C365.7 466 388.3 470 411.2 475.2C434 480.3 457 486.7 480 484.2C503 481.7 526 470.3 548.8 471.3C571.7 472.3 594.3 485.7 617.2 490.8C640 496 663 493 685.8 492.8C708.7 492.7 731.3 495.3 754.2 489.8C777 484.3 800 470.7 822.8 465.8C845.7 461 868.3 465 891.2 465.3C914 465.7 937 462.3 948.5 460.7L960 459L960 541L948.5 541C937 541 914 541 891.2 541C868.3 541 845.7 541 822.8 541C800 541 777 541 754.2 541C731.3 541 708.7 541 685.8 541C663 541 640 541 617.2 541C594.3 541 571.7 541 548.8 541C526 541 503 541 480 541C457 541 434 541 411.2 541C388.3 541 365.7 541 342.8 541C320 541 297 541 274.2 541C251.3 541 228.7 541 205.8 541C183 541 160 541 137.2 541C114.3 541 91.7 541 68.8 541C46 541 23 541 11.5 541L0 541Z" fill="#afe1ff"/><path d="M0 512L11.5 512.2C23 512.3 46 512.7 68.8 508.5C91.7 504.3 114.3 495.7 137.2 494C160 492.3 183 497.7 205.8 501.5C228.7 505.3 251.3 507.7 274.2 508.8C297 510 320 510 342.8 503.7C365.7 497.3 388.3 484.7 411.2 484.7C434 484.7 457 497.3 480 498.3C503 499.3 526 488.7 548.8 488.5C571.7 488.3 594.3 498.7 617.2 504.2C640 509.7 663 510.3 685.8 509.3C708.7 508.3 731.3 505.7 754.2 500C777 494.3 800 485.7 822.8 486.2C845.7 486.7 868.3 496.3 891.2 501.7C914 507 937 508 948.5 508.5L960 509L960 541L948.5 541C937 541 914 541 891.2 541C868.3 541 845.7 541 822.8 541C800 541 777 541 754.2 541C731.3 541 708.7 541 685.8 541C663 541 640 541 617.2 541C594.3 541 571.7 541 548.8 541C526 541 503 541 480 541C457 541 434 541 411.2 541C388.3 541 365.7 541 342.8 541C320 541 297 541 274.2 541C251.3 541 228.7 541 205.8 541C183 541 160 541 137.2 541C114.3 541 91.7 541 68.8 541C46 541 23 541 11.5 541L0 541Z" fill="#87d1ff"/><path d="M0 515L11.5 512.2C23 509.3 46 503.7 68.8 504.2C91.7 504.7 114.3 511.3 137.2 513.8C160 516.3 183 514.7 205.8 511.2C228.7 507.7 251.3 502.3 274.2 502.7C297 503 320 509 342.8 512.5C365.7 516 388.3 517 411.2 517C434 517 457 516 480 514.3C503 512.7 526 510.3 548.8 512.5C571.7 514.7 594.3 521.3 617.2 522.5C640 523.7 663 519.3 685.8 517.3C708.7 515.3 731.3 515.7 754.2 513.5C777 511.3 800 506.7 822.8 506.3C845.7 506 868.3 510 891.2 511.3C914 512.7 937 511.3 948.5 510.7L960 510L960 541L948.5 541C937 541 914 541 891.2 541C868.3 541 845.7 541 822.8 541C800 541 777 541 754.2 541C731.3 541 708.7 541 685.8 541C663 541 640 541 617.2 541C594.3 541 571.7 541 548.8 541C526 541 503 541 480 541C457 541 434 541 411.2 541C388.3 541 365.7 541 342.8 541C320 541 297 541 274.2 541C251.3 541 228.7 541 205.8 541C183 541 160 541 137.2 541C114.3 541 91.7 541 68.8 541C46 541 23 541 11.5 541L0 541Z" fill="#57c1ff"/></svg>